<?xml version="1.0" standalone="no"?>
<!DOCTYPE svg PUBLIC "-//W3C//DTD SVG 20010904//EN"
 "http://www.w3.org/TR/2001/REC-SVG-20010904/DTD/svg10.dtd">
<svg version="1.0" xmlns="http://www.w3.org/2000/svg"
 width="1920.000000pt" height="1360.000000pt" viewBox="0 0 1920.000000 1360.000000"
 preserveAspectRatio="xMidYMid meet">
<metadata>
Created by potrace 1.16, written by Peter Selinger 2001-2019
</metadata>
<g transform="translate(0.000000,1360.000000) scale(0.100000,-0.100000)"
fill="#66BB6A" stroke="none">
<path d="M2480 13307 c-14 -6 -26 -12 -28 -13 -1 -1 3 -13 9 -27 7 -15 16 -24
20 -21 5 3 6 -2 3 -10 -3 -8 1 -29 10 -46 8 -17 13 -37 10 -45 -3 -7 0 -24 7
-37 7 -13 13 -31 14 -41 1 -11 8 -22 15 -27 7 -4 10 -12 6 -18 -3 -5 5 -21 19
-36 13 -14 21 -26 17 -26 -4 -1 8 -14 27 -30 19 -16 38 -27 42 -25 4 3 10 -2
13 -11 5 -14 1 -15 -21 -10 -43 10 -410 19 -396 9 6 -5 -11 -8 -40 -9 -117 -3
-215 -12 -237 -24 -12 -7 -35 -9 -51 -6 -17 3 -33 0 -41 -8 -7 -7 -27 -12 -44
-12 -17 0 -45 -6 -62 -13 -17 -7 -35 -10 -41 -7 -5 3 -16 -1 -24 -9 -9 -8 -27
-15 -41 -15 -14 0 -26 -4 -26 -9 0 -5 -8 -8 -17 -6 -10 1 -27 -3 -38 -9 -11
-6 -27 -11 -35 -11 -8 -1 -14 -6 -13 -12 1 -6 -8 -10 -21 -9 -14 2 -35 -7 -49
-20 -18 -16 -27 -20 -30 -11 -4 9 -6 9 -6 0 -1 -7 -10 -13 -21 -13 -11 0 -20
-4 -20 -10 0 -5 -5 -10 -12 -10 -6 0 -20 -8 -31 -17 -15 -13 -19 -14 -13 -3 4
8 1 7 -7 -3 -8 -10 -21 -16 -28 -15 -8 2 -13 -3 -12 -9 2 -7 -4 -13 -12 -13
-8 0 -15 -4 -15 -10 0 -5 -6 -10 -14 -10 -16 0 -29 -27 -16 -35 5 -3 8 -14 7
-24 -1 -15 -5 -17 -23 -11 -13 5 -26 4 -34 -3 -10 -9 -11 -9 -5 1 15 28 -35
-8 -95 -67 -43 -43 -56 -61 -48 -69 9 -9 6 -10 -10 -7 -15 3 -19 0 -15 -11 3
-8 2 -14 -3 -12 -5 2 -10 -1 -11 -5 -1 -5 -14 -19 -30 -33 -15 -13 -23 -24
-18 -24 6 0 2 -5 -8 -11 -9 -6 -15 -14 -12 -20 4 -5 1 -9 -4 -9 -6 0 -11 -6
-11 -14 0 -8 -7 -17 -16 -20 -13 -5 -14 -9 -5 -20 9 -11 8 -14 -6 -12 -10 0
-17 -5 -15 -11 1 -7 -2 -13 -8 -13 -5 0 -10 -9 -10 -20 0 -11 -4 -20 -10 -20
-5 0 -10 -6 -10 -14 0 -7 -6 -19 -14 -25 -8 -7 -12 -21 -8 -34 3 -12 1 -18 -3
-14 -15 13 -46 -63 -34 -84 8 -15 6 -17 -8 -12 -12 5 -15 2 -10 -10 3 -9 2
-17 -4 -17 -6 0 -7 -5 -4 -10 4 -6 2 -17 -4 -24 -6 -7 -13 -30 -15 -52 -2 -21
-9 -59 -16 -83 -6 -26 -8 -63 -3 -90 4 -25 9 -38 11 -28 5 23 32 22 32 -2 0
-11 -6 -26 -14 -34 -19 -19 -21 -34 -11 -82 11 -51 10 -47 19 -67 4 -9 9 -22
10 -30 8 -36 38 -83 48 -73 2 3 4 -6 4 -18 -1 -12 3 -24 9 -27 5 -3 25 -22 43
-42 19 -21 39 -35 45 -31 5 3 7 1 3 -5 -3 -6 -2 -13 4 -17 6 -4 8 -10 5 -15
-3 -4 2 -13 10 -20 8 -7 15 -9 15 -5 0 4 7 2 15 -5 8 -6 19 -9 24 -6 6 4 8 -2
6 -14 -2 -11 -1 -20 3 -21 26 -3 46 -9 65 -21 37 -24 60 -30 54 -14 -3 8 2 16
12 19 12 3 25 -7 41 -29 15 -23 31 -34 46 -34 22 0 25 -4 23 -27 0 -5 -7 -7
-15 -5 -13 3 -14 0 -1 -24 13 -26 19 -28 66 -25 28 1 66 -1 84 -5 l32 -8 -30
-6 c-16 -4 -35 -3 -41 1 -14 11 -84 -1 -84 -15 0 -7 28 -11 85 -10 47 1 82 -2
79 -7 -3 -5 -33 -9 -68 -9 -66 0 -78 -4 -70 -24 3 -8 25 -11 67 -8 34 2 75 -1
91 -7 43 -17 26 -23 -29 -11 -53 12 -108 5 -102 -13 2 -7 30 -15 63 -18 32 -3
73 -13 89 -23 26 -15 27 -16 5 -10 -14 4 -50 8 -80 11 -51 3 -54 3 -36 -12 11
-8 36 -15 55 -15 33 0 134 -49 102 -50 -11 0 -11 -3 -1 -15 16 -19 3 -19 -30
0 -29 16 -64 20 -55 5 3 -5 24 -14 45 -20 22 -6 40 -15 40 -21 0 -6 -6 -7 -12
-4 -7 4 -1 -3 15 -15 15 -12 25 -26 21 -31 -3 -5 -1 -9 5 -9 5 0 16 -2 23 -5
18 -7 16 54 -2 65 -8 5 -10 21 -5 50 6 33 4 41 -5 35 -9 -6 -11 0 -8 23 2 17
0 33 -5 35 -5 1 -10 17 -10 34 -1 17 -5 29 -9 27 -5 -4 -21 28 -23 47 -2 23
-94 79 -130 79 -14 0 -25 4 -25 8 0 5 -14 6 -31 4 -23 -3 -30 -1 -25 7 4 6 22
11 39 11 60 -1 112 5 118 13 3 4 20 9 39 12 18 2 36 8 39 13 13 20 157 40 145
20 -3 -4 5 -12 16 -18 11 -6 18 -15 15 -21 -4 -5 -1 -9 5 -9 6 0 9 -4 6 -8 -3
-5 12 -24 32 -44 27 -25 46 -34 68 -34 19 1 30 -3 27 -10 -6 -15 128 -9 137 7
4 6 13 8 19 5 11 -7 61 39 61 56 0 5 5 6 12 2 7 -5 9 -2 6 7 -4 10 1 15 15 16
11 1 25 7 31 14 8 9 7 10 -4 4 -11 -6 -10 -3 3 12 9 11 14 23 10 27 -4 4 0 4
9 1 23 -9 77 73 56 86 -7 5 -18 7 -25 4 -6 -2 -17 3 -23 10 -7 8 -16 13 -20
10 -4 -3 -10 2 -14 10 -3 8 -12 12 -21 9 -8 -3 -15 -1 -15 5 0 10 -37 30 -65
35 -5 1 -16 6 -24 10 -8 5 -50 9 -94 8 -63 0 -82 -4 -94 -19 -8 -10 -12 -12
-8 -3 4 8 -5 2 -20 -15 -14 -16 -30 -30 -33 -30 -4 0 -6 -3 -4 -8 1 -4 -4 -6
-10 -5 -7 2 -12 -3 -10 -11 3 -12 0 -12 -12 -2 -17 14 -11 36 6 25 7 -5 9 -1
5 9 -3 8 1 21 9 27 8 7 14 20 14 29 0 9 6 23 13 30 10 11 9 13 -3 7 -13 -7
-13 -6 0 6 9 7 14 26 12 43 -2 20 0 26 6 17 6 -9 9 -1 8 22 -1 20 -5 36 -10
36 -4 0 -6 14 -4 30 3 21 0 30 -9 30 -8 0 -11 -4 -8 -10 3 -5 0 -7 -9 -4 -19
7 -27 -21 -22 -75 3 -29 -1 -52 -11 -68 -8 -12 -12 -23 -7 -23 4 0 3 -5 -4
-12 -7 -7 -12 -20 -12 -31 0 -10 -4 -15 -10 -12 -6 3 -10 -4 -10 -17 0 -18 -2
-20 -10 -8 -8 13 -10 12 -10 -3 0 -10 -4 -15 -10 -12 -5 3 -10 -1 -10 -9 0 -9
-5 -16 -11 -16 -7 0 -22 -11 -35 -25 -13 -14 -27 -26 -31 -28 -5 -1 -7 -5 -6
-9 2 -4 -8 -3 -21 2 -17 6 -30 4 -45 -7 -12 -8 -28 -12 -36 -9 -8 3 -15 2 -15
-2 0 -4 -19 -6 -42 -5 -24 1 -73 3 -110 5 -36 2 -64 6 -61 11 2 4 -1 8 -6 8
-14 2 -30 6 -33 9 -2 1 -12 3 -22 5 -11 2 -23 11 -28 20 -5 8 -13 13 -18 10
-4 -3 -11 2 -14 11 -3 8 -10 13 -15 10 -5 -3 -12 1 -15 9 -3 8 -10 14 -15 13
-13 -4 -121 111 -121 129 0 8 -5 11 -12 7 -7 -4 -8 -3 -4 4 4 7 19 12 34 12
29 -1 66 -23 55 -33 -3 -4 2 -9 11 -13 9 -3 13 -10 10 -15 -3 -5 2 -9 10 -9 8
0 18 -5 22 -12 5 -7 3 -8 -7 -3 -12 8 -12 6 0 -8 7 -9 17 -14 22 -11 5 3 9 0
9 -7 0 -12 20 -31 54 -50 13 -8 17 -8 12 0 -5 7 -1 9 8 5 9 -3 14 -10 11 -14
-3 -4 15 -11 39 -14 45 -7 92 0 113 16 7 5 17 7 22 3 11 -6 72 21 83 39 4 6 8
8 8 3 0 -12 60 22 60 34 0 6 5 7 10 4 6 -3 13 0 16 8 3 8 19 14 36 15 17 0 35
5 40 10 11 11 -1 44 -13 36 -5 -3 -6 1 -3 9 3 8 -10 27 -31 45 -19 18 -36 35
-38 39 -1 5 -5 7 -10 5 -4 -1 -6 4 -5 10 2 7 -3 12 -10 10 -6 -1 -11 4 -10 10
2 7 -3 12 -10 10 -6 -1 -11 1 -10 5 2 5 0 9 -4 11 -4 1 -20 14 -34 27 -15 14
-29 23 -32 21 -2 -3 -11 2 -19 10 -8 8 -18 12 -23 9 -4 -3 -21 2 -36 10 -35
18 -82 19 -121 3 -15 -6 -32 -12 -38 -13 -33 -7 -55 -19 -55 -32 0 -8 -4 -12
-9 -8 -11 6 -42 -35 -35 -47 3 -4 -1 -8 -9 -8 -8 0 -20 -14 -27 -30 -18 -43
-46 -60 -84 -53 -35 7 -60 28 -51 43 3 5 1 10 -5 10 -6 0 -9 4 -5 9 3 5 1 12
-3 15 -5 3 -10 22 -11 43 -1 21 -3 44 -3 51 -1 6 -5 12 -9 12 -11 0 -16 130
-4 133 5 2 9 20 8 40 -1 20 3 37 8 37 4 0 6 7 3 15 -4 8 -1 22 6 30 10 12 10
18 0 30 -11 13 -10 14 4 9 12 -5 15 -2 9 12 -4 11 -3 15 4 11 6 -4 10 1 10 11
0 41 4 53 14 47 6 -4 10 -1 8 6 -4 32 1 50 13 43 6 -4 8 -3 5 4 -10 15 3 43
16 35 6 -4 8 0 4 10 -3 9 1 24 11 33 9 10 18 21 18 26 1 4 2 13 3 19 0 5 6 7
11 4 6 -4 9 -3 8 2 -4 16 14 53 23 48 5 -4 9 1 9 9 0 9 5 16 11 16 5 0 8 4 5
9 -4 5 11 26 31 48 21 21 37 40 36 43 -1 8 42 54 61 65 10 6 18 14 17 18 -1 4
5 15 14 23 8 9 12 20 9 26 -4 7 -2 8 5 4 6 -4 8 -13 5 -19 -4 -7 8 5 26 26 17
20 35 35 40 32 5 -3 12 1 17 9 4 7 29 28 56 46 26 17 47 35 47 39 0 4 7 8 15
9 8 1 22 3 30 4 8 1 15 5 15 10 0 5 5 6 10 3 6 -3 10 -2 10 4 0 6 7 7 17 4 11
-4 14 -3 9 5 -4 7 -2 12 4 12 6 0 8 5 4 12 -4 6 -3 8 4 5 15 -10 43 3 35 17
-4 8 -3 8 6 0 9 -9 22 -7 51 7 22 11 48 19 59 19 11 0 23 5 26 10 3 6 17 10
30 10 13 0 27 5 30 10 3 6 15 10 26 10 10 0 19 5 19 11 0 5 3 8 8 6 4 -3 34 0
67 5 33 5 72 11 87 13 14 1 32 7 40 11 7 5 21 7 32 5 10 -1 29 8 42 20 19 18
24 19 24 6 0 -18 39 -34 49 -20 3 6 33 10 66 11 33 1 125 5 203 9 99 6 147 5
153 -3 4 -6 40 -10 78 -10 38 1 67 -3 64 -7 -3 -5 19 -6 50 -2 36 5 57 3 61
-4 4 -6 22 -11 39 -11 24 0 28 3 17 10 -10 7 -11 10 -2 10 7 0 15 -6 18 -14 4
-10 15 -13 40 -9 24 4 34 2 34 -7 0 -9 9 -11 30 -6 17 3 29 2 26 -2 -2 -4 15
-8 37 -9 71 -3 78 -4 73 -11 -2 -4 10 -8 27 -8 33 -2 81 -11 107 -21 8 -4 21
-5 29 -4 7 1 10 -2 7 -7 -4 -6 3 -8 16 -4 14 3 19 1 14 -6 -4 -7 1 -10 13 -7
19 4 125 -25 137 -38 4 -4 18 -7 30 -7 13 0 26 -4 29 -10 4 -6 -9 -9 -32 -9
-43 1 -93 -15 -93 -31 0 -6 -4 -9 -8 -6 -5 3 -22 -9 -39 -27 -34 -37 -67 -87
-56 -87 4 0 -1 -6 -12 -13 -10 -8 -15 -19 -11 -25 4 -7 3 -12 -1 -12 -12 0
-43 -71 -43 -98 0 -19 6 -22 43 -24 23 0 48 -1 55 -1 6 1 12 -4 12 -9 0 -6 11
-7 26 -4 17 5 23 3 19 -4 -4 -7 2 -9 19 -4 14 3 34 3 43 -1 32 -14 55 -15 69
-4 7 6 22 8 32 4 12 -3 26 1 35 10 9 8 23 15 32 15 9 0 14 4 11 9 -3 4 6 19
21 32 14 13 23 18 19 12 -4 -7 -5 -13 -2 -13 3 0 10 10 17 21 9 17 8 20 -3 14
-7 -4 -3 2 10 14 12 12 20 26 17 32 -4 5 -2 9 4 9 5 0 12 13 16 29 3 16 12 34
19 40 16 13 98 23 91 11 -8 -13 18 -18 38 -8 10 5 17 5 17 -1 0 -5 11 -12 25
-15 14 -4 25 -11 25 -16 0 -5 7 -6 17 -3 9 4 14 2 10 -3 -3 -6 10 -10 31 -10
28 0 37 -4 36 -16 -1 -13 3 -15 22 -8 17 7 22 6 18 -4 -3 -9 4 -12 25 -11 17
1 28 -2 26 -5 -3 -4 5 -11 18 -15 12 -4 25 -8 30 -10 4 -1 13 -3 21 -4 8 0 21
-7 28 -13 7 -7 18 -13 23 -13 26 -1 75 -18 75 -25 0 -5 7 -6 17 -3 9 4 14 2
11 -3 -7 -11 52 -12 69 -1 9 5 11 3 7 -6 -4 -11 13 -19 65 -32 38 -10 68 -21
66 -24 -2 -3 9 -7 23 -8 60 -5 118 -16 128 -24 6 -5 19 -7 28 -3 9 3 16 1 16
-5 0 -7 8 -7 23 -2 14 6 32 4 50 -6 22 -11 36 -12 58 -4 26 9 32 7 31 -9 0 -3
70 -6 156 -6 86 -1 148 2 137 7 -14 5 -7 7 25 8 25 0 63 3 85 6 22 3 50 6 63
6 12 -1 22 4 22 10 0 7 10 9 25 5 14 -4 25 -3 25 2 0 10 138 44 150 37 5 -3
12 1 17 9 8 15 10 16 44 16 13 0 18 4 13 13 -5 8 -2 8 9 -2 13 -10 17 -10 17
-1 0 7 7 10 15 6 8 -3 15 -1 15 5 0 6 4 8 9 5 5 -4 11 -2 13 4 1 5 12 11 23
13 11 1 26 6 33 10 6 5 12 5 12 1 0 -4 8 0 18 9 9 8 26 17 37 19 11 1 22 6 25
9 9 11 90 50 90 43 0 -4 8 0 18 9 10 10 22 14 25 10 4 -3 7 -1 7 5 0 10 24 25
134 83 17 10 35 14 40 11 5 -3 6 -1 3 4 -3 5 8 17 24 27 18 10 28 12 24 4 -3
-6 2 -2 11 11 9 12 22 22 30 22 7 0 20 10 28 22 10 14 16 17 16 8 0 -10 5 -8
16 6 8 10 13 12 9 4 -4 -8 1 -6 10 5 9 11 21 19 26 18 5 -2 9 2 9 8 0 5 5 7
12 3 7 -4 8 -3 4 4 -6 11 5 16 26 13 4 0 5 6 2 14 -4 10 0 13 15 10 11 -2 24
2 28 9 5 7 23 21 41 30 18 9 36 24 39 31 3 8 9 12 14 10 4 -3 19 5 31 17 13
13 27 22 31 20 5 -1 6 2 2 8 -6 9 7 14 28 11 4 0 7 6 7 15 0 9 6 14 13 11 8
-3 14 0 14 7 0 7 -6 13 -14 13 -7 0 -13 -4 -13 -9 0 -4 -7 -8 -15 -8 -8 0 -15
-4 -15 -10 0 -5 -6 -10 -14 -10 -8 0 -16 -4 -18 -8 -1 -4 -25 -19 -52 -32 -79
-40 -86 -44 -86 -52 0 -5 -7 -8 -15 -8 -8 0 -15 -4 -15 -10 0 -5 -9 -10 -20
-10 -11 0 -20 -5 -20 -11 0 -5 -5 -7 -10 -4 -6 3 -13 -1 -16 -9 -3 -9 -15 -16
-25 -16 -10 0 -19 -5 -19 -11 0 -5 -4 -8 -9 -5 -5 3 -14 -1 -21 -9 -7 -8 -16
-12 -21 -9 -5 3 -12 -2 -15 -10 -3 -9 -15 -16 -25 -16 -10 0 -19 -5 -19 -11 0
-6 -7 -8 -15 -5 -9 3 -18 -1 -21 -9 -4 -8 -10 -12 -15 -9 -5 3 -12 -2 -15 -11
-4 -9 -12 -14 -20 -11 -7 3 -18 -2 -24 -9 -7 -8 -16 -13 -20 -10 -4 3 -13 -2
-20 -10 -7 -8 -21 -15 -31 -15 -11 0 -19 -5 -19 -10 0 -6 -8 -10 -17 -8 -11 2
-17 -2 -15 -10 1 -8 -1 -11 -6 -8 -5 3 -21 -2 -36 -9 -16 -8 -32 -13 -36 -10
-4 3 -13 -2 -20 -10 -7 -8 -16 -13 -20 -10 -5 3 -15 -2 -23 -10 -9 -8 -22 -13
-30 -10 -7 3 -20 -1 -27 -10 -7 -8 -20 -15 -29 -15 -9 0 -25 -7 -35 -15 -10
-8 -22 -12 -27 -10 -4 3 -10 1 -14 -5 -3 -5 -17 -10 -30 -10 -13 0 -27 -5 -30
-11 -4 -6 -13 -8 -20 -5 -7 2 -22 -2 -33 -10 -11 -8 -28 -11 -38 -7 -13 5 -15
3 -9 -7 5 -9 4 -11 -4 -6 -6 4 -18 2 -26 -4 -8 -7 -20 -10 -27 -7 -7 2 -26 -2
-41 -10 -15 -8 -36 -12 -45 -9 -23 7 -47 -8 -37 -24 6 -10 4 -11 -6 -4 -21 13
-67 12 -139 -3 -60 -12 -319 -14 -360 -2 -11 3 -14 -3 -12 -23 2 -22 -1 -25
-19 -21 -11 3 -24 15 -28 25 -7 20 -104 60 -126 52 -6 -3 -27 2 -46 9 -18 8
-40 12 -47 10 -7 -3 -19 0 -27 7 -8 6 -19 9 -25 5 -5 -3 -10 -1 -10 6 0 8 -3
9 -14 0 -10 -9 -16 -8 -26 4 -7 8 -16 12 -21 9 -5 -3 -9 0 -9 6 0 6 -4 8 -10
5 -5 -3 -19 0 -31 8 -11 8 -28 13 -39 10 -10 -3 -21 0 -24 6 -4 6 -18 11 -32
11 -13 0 -24 5 -24 10 0 6 -11 10 -24 10 -14 0 -28 5 -31 10 -3 6 -16 10 -29
10 -12 0 -28 6 -35 13 -12 10 -13 9 -7 -7 4 -13 -3 -9 -26 13 -18 17 -38 29
-45 27 -7 -3 -15 -1 -18 5 -4 5 -11 7 -16 4 -5 -4 -9 -2 -9 4 0 6 -7 8 -15 5
-8 -4 -12 -11 -8 -17 3 -6 1 -7 -5 -3 -6 4 -9 13 -5 21 4 11 -2 15 -20 15 -13
0 -30 6 -37 14 -6 8 -17 13 -24 10 -7 -3 -18 2 -25 10 -7 8 -18 13 -26 10 -7
-3 -16 -1 -20 5 -3 6 -14 11 -24 11 -10 0 -24 7 -31 15 -7 9 -18 14 -25 12 -6
-3 -19 1 -29 9 -11 7 -23 11 -27 8 -5 -2 -16 0 -26 5 -26 14 -57 24 -65 23 -5
-1 -8 2 -8 8 0 5 -7 7 -15 4 -8 -4 -15 -1 -15 5 0 6 -11 11 -24 11 -14 0 -28
5 -31 10 -3 6 -17 10 -30 10 -13 0 -27 5 -30 10 -3 6 -16 10 -28 10 -12 0 -30
7 -40 15 -11 7 -25 11 -32 9 -7 -3 -25 2 -39 11 -14 9 -30 14 -35 10 -6 -3
-22 1 -35 10 -14 9 -30 14 -36 10 -6 -4 -26 0 -45 9 -18 9 -40 13 -48 10 -9
-3 -25 -1 -36 6 -12 6 -44 12 -72 14 -41 3 -56 10 -78 33 -27 30 -30 51 -14
93 5 14 8 59 7 100 -3 103 -3 102 -14 95 -5 -3 -7 0 -4 8 6 18 -44 79 -58 70
-6 -3 -8 -1 -5 4 8 13 -39 46 -52 38 -5 -3 -11 0 -13 6 -2 7 -13 13 -24 13
-11 1 -26 6 -34 11 -20 12 -241 14 -270 2z"/>
<path d="M16438 13304 c-73 -18 -161 -82 -170 -124 -2 -8 -8 -20 -14 -27 -17
-18 -15 -187 1 -210 11 -15 10 -23 -2 -47 -26 -50 -43 -61 -90 -59 -24 1 -41
-2 -39 -6 5 -7 1 -8 -72 -15 -24 -3 -50 -10 -57 -16 -8 -7 -24 -9 -36 -5 -16
5 -19 4 -14 -5 5 -9 4 -11 -4 -6 -6 4 -18 2 -26 -4 -8 -7 -21 -10 -29 -7 -7 3
-23 -1 -35 -10 -12 -8 -28 -12 -35 -10 -8 3 -23 -1 -34 -9 -11 -8 -27 -12 -35
-9 -7 3 -20 -1 -27 -10 -7 -8 -23 -15 -36 -15 -12 0 -26 -5 -29 -11 -4 -6 -13
-8 -20 -5 -7 2 -22 -2 -34 -10 -12 -8 -25 -13 -30 -10 -5 3 -14 -1 -21 -9 -7
-8 -22 -15 -34 -15 -12 0 -27 -5 -34 -12 -7 -7 -12 -8 -12 -4 0 5 -11 1 -25
-8 -14 -9 -29 -14 -34 -12 -5 3 -14 -1 -21 -10 -7 -8 -19 -13 -26 -10 -7 3
-18 -2 -25 -10 -7 -8 -18 -13 -25 -10 -8 3 -20 -1 -28 -9 -8 -8 -21 -13 -29
-10 -7 3 -20 -1 -27 -10 -7 -8 -21 -15 -31 -15 -10 0 -21 -5 -24 -10 -4 -6
-11 -8 -16 -5 -5 4 -9 2 -9 -4 0 -6 -7 -8 -15 -5 -8 4 -15 1 -15 -5 0 -6 -9
-11 -19 -11 -11 0 -23 -4 -26 -10 -3 -5 -17 -10 -30 -10 -13 0 -27 -5 -30 -10
-4 -6 -11 -8 -16 -5 -5 4 -9 2 -9 -4 0 -6 -7 -8 -15 -5 -8 4 -15 1 -15 -6 0
-7 -6 -10 -14 -7 -8 3 -22 -1 -33 -8 -10 -8 -26 -15 -36 -15 -19 0 -58 -20
-69 -35 -5 -6 -8 -5 -8 4 0 11 -3 11 -15 1 -8 -6 -18 -9 -23 -6 -5 3 -22 -2
-37 -10 -16 -8 -37 -13 -47 -11 -9 3 -23 -2 -30 -10 -6 -8 -22 -13 -35 -10
-13 2 -23 0 -23 -5 0 -5 -5 -6 -10 -3 -6 4 -16 2 -23 -3 -7 -5 -30 -12 -52
-15 -88 -13 -103 -18 -109 -43 -4 -16 -14 -24 -27 -24 -16 0 -20 5 -17 18 5
18 -4 18 -158 15 -116 -2 -178 1 -216 11 -29 7 -72 12 -95 11 -24 -2 -43 1
-43 6 0 5 -15 9 -34 9 -18 0 -46 6 -61 14 -15 8 -34 12 -41 9 -8 -3 -22 1 -31
8 -8 8 -26 12 -38 11 -12 -2 -27 4 -34 12 -9 11 -19 13 -37 5 -17 -6 -23 -6
-19 1 3 6 -2 13 -12 16 -10 3 -29 11 -42 17 -13 7 -33 11 -44 9 -12 -2 -17 1
-13 7 5 7 -3 11 -18 11 -14 0 -26 5 -26 10 0 6 -11 10 -25 10 -14 0 -25 5 -25
10 0 6 -11 10 -24 10 -14 0 -32 8 -42 18 -10 9 -19 16 -21 15 -1 -1 -10 0 -18
3 -8 4 -24 4 -36 1 -16 -4 -18 -3 -8 9 9 11 8 14 -9 14 -11 0 -25 7 -32 15 -7
9 -15 13 -18 10 -3 -3 -14 2 -24 12 -10 9 -18 12 -18 8 0 -4 -9 0 -19 9 -14
13 -21 14 -27 5 -5 -8 -3 -10 6 -4 9 6 11 4 6 -4 -8 -12 -21 -7 -21 7 0 4 -4
13 -9 20 -6 11 -11 11 -24 0 -9 -7 -13 -8 -9 -2 4 7 0 17 -8 24 -8 7 -15 9
-15 5 0 -5 -9 0 -20 10 -11 10 -20 14 -20 9 0 -5 -5 -1 -11 9 -6 9 -15 14 -21
11 -6 -4 -14 0 -19 7 -4 8 -12 14 -16 15 -18 2 -50 18 -80 41 -18 13 -33 20
-33 16 0 -4 -5 -1 -10 7 -5 8 -13 15 -17 15 -19 2 -53 17 -53 24 0 5 -15 15
-32 22 -18 7 -38 20 -45 29 -7 8 -13 11 -13 6 0 -6 -7 -1 -16 10 -8 10 -12 12
-8 4 6 -11 2 -10 -13 3 -11 9 -24 17 -30 17 -6 0 -14 7 -17 16 -3 8 -10 12
-16 9 -5 -3 -10 -1 -10 4 0 6 -7 11 -15 11 -8 0 -15 5 -15 10 0 6 -7 10 -15
10 -12 0 -11 -4 5 -20 11 -11 24 -20 28 -20 5 0 19 -10 32 -22 14 -13 28 -22
32 -21 5 2 8 -2 8 -7 0 -6 9 -10 21 -10 15 0 19 -4 15 -16 -5 -14 -4 -15 9 -4
12 10 15 10 15 -2 0 -15 52 -58 70 -58 6 0 8 -5 4 -12 -5 -7 -2 -9 8 -6 9 4
27 -5 44 -20 16 -15 31 -27 34 -28 20 -3 39 -18 33 -27 -3 -5 -2 -7 4 -4 13 8
65 -27 56 -38 -5 -4 -3 -5 4 -1 14 8 65 -22 58 -34 -2 -4 7 -6 20 -4 14 1 23
-2 19 -7 -3 -5 6 -13 20 -19 14 -5 26 -14 26 -20 0 -6 5 -8 10 -5 6 3 10 1 10
-5 0 -6 4 -9 8 -6 5 3 16 -4 25 -15 10 -11 21 -17 26 -15 5 3 35 -10 67 -29
32 -19 62 -35 67 -35 4 0 5 -5 1 -12 -4 -7 -3 -8 4 -4 12 7 115 -40 120 -55 2
-5 8 -7 13 -3 5 3 9 0 9 -7 0 -8 4 -8 15 1 9 7 18 10 22 6 3 -3 1 -6 -5 -6 -7
0 -12 -4 -12 -10 0 -5 7 -6 17 -3 12 5 14 3 8 -7 -5 -9 -4 -11 4 -6 15 10 53
-3 46 -15 -4 -5 2 -8 12 -7 35 3 54 -2 48 -12 -9 -14 8 -12 24 3 11 10 13 10
7 0 -5 -9 0 -13 13 -13 12 0 21 -4 21 -8 0 -4 14 -9 32 -10 18 -2 35 -7 39
-13 3 -5 10 -9 15 -8 23 4 55 -2 50 -10 -3 -4 6 -7 19 -5 14 1 25 -1 25 -5 0
-5 12 -6 26 -3 19 3 25 1 20 -7 -5 -8 3 -10 29 -6 19 2 34 1 31 -3 -3 -5 12
-8 32 -8 20 0 44 -2 52 -4 9 -3 14 1 12 10 -3 12 -1 13 9 3 7 -7 22 -13 33
-14 21 0 21 0 1 -8 -11 -5 50 -8 138 -8 151 1 157 2 158 22 0 16 2 17 7 4 5
-12 16 -15 42 -12 19 3 52 6 73 7 20 0 37 4 37 8 0 4 7 5 15 2 8 -4 15 -2 15
3 0 5 17 8 38 8 20 0 50 6 66 13 15 8 37 12 47 9 11 -3 17 -1 14 3 -6 10 92
33 105 25 5 -3 10 0 12 6 2 7 18 12 35 13 17 0 28 5 25 10 -3 5 2 7 11 3 10
-3 17 -2 17 3 0 6 7 10 16 10 8 0 13 4 10 9 -4 5 4 7 16 3 16 -4 19 -2 13 9
-7 12 -6 12 9 0 14 -12 19 -12 26 -2 4 8 13 10 19 7 6 -4 11 -2 11 4 0 6 4 9
9 5 5 -3 13 0 16 6 4 5 13 8 21 5 8 -3 14 -1 14 4 0 5 7 6 17 3 11 -4 14 -3 9
5 -5 8 1 12 18 12 14 0 28 5 31 10 3 6 17 10 31 10 13 0 24 4 24 8 0 10 61 33
71 26 5 -3 9 0 9 6 0 7 7 10 15 6 8 -3 15 -1 15 5 0 6 5 7 10 4 6 -3 10 -1 10
5 0 6 4 9 9 5 5 -3 12 -1 16 5 4 6 11 8 16 5 5 -4 9 -1 9 5 0 7 7 10 15 6 8
-3 15 -2 15 2 0 13 55 6 87 -11 23 -12 31 -23 28 -37 -2 -11 1 -20 6 -20 6 0
7 -4 4 -10 -3 -5 -2 -10 4 -10 6 0 8 -7 4 -15 -3 -10 0 -15 8 -13 8 2 14 -5
14 -14 0 -9 4 -20 9 -25 5 -5 6 -2 1 6 -6 10 -4 12 4 7 7 -5 10 -15 6 -23 -4
-13 -3 -14 9 -4 8 7 12 20 9 29 -4 14 -3 15 5 2 6 -8 8 -19 4 -25 -8 -13 -12
-39 -5 -31 3 3 12 -2 20 -12 8 -9 12 -11 8 -5 -4 9 -1 11 9 7 9 -3 13 -10 10
-15 -6 -10 6 -12 50 -9 19 1 26 -2 21 -10 -6 -9 -2 -9 15 0 15 8 20 8 16 1 -4
-6 -1 -11 8 -11 8 0 18 5 22 11 4 7 21 9 45 5 25 -4 39 -2 39 5 0 6 9 8 21 4
16 -5 19 -4 14 6 -6 9 -4 11 7 6 9 -3 32 -2 51 3 25 5 37 4 40 -4 3 -6 8 -3
12 7 8 20 -21 107 -36 107 -6 0 -8 4 -4 9 3 5 0 15 -7 23 -7 7 -14 20 -16 28
-5 20 -42 70 -53 70 -5 0 -8 6 -6 13 1 6 -4 11 -11 9 -8 -1 -11 2 -7 7 6 11
-29 34 -39 24 -3 -3 -6 -1 -6 5 0 6 -9 9 -20 7 -11 -2 -18 0 -15 4 8 15 -22
20 -55 11 -27 -8 -30 -7 -20 5 7 8 23 15 36 15 12 0 26 5 29 11 4 6 13 8 20 5
8 -3 15 0 17 6 2 6 18 11 36 12 18 0 32 5 32 10 0 4 7 6 15 2 8 -3 15 -2 15 3
0 5 11 9 25 10 48 3 55 4 55 13 0 5 8 8 18 6 9 -1 32 3 49 11 18 7 39 11 47 8
8 -3 16 -1 18 4 2 6 27 12 56 12 28 1 52 5 52 9 0 4 8 7 18 7 33 1 117 10 152
17 19 4 59 7 88 6 32 -1 52 3 52 10 0 7 20 9 61 5 36 -4 69 -2 81 4 22 12 272
14 290 2 7 -4 40 -7 73 -6 34 1 63 -4 67 -10 4 -7 15 -5 32 7 24 15 29 15 48
1 13 -8 32 -15 45 -15 12 0 24 -3 26 -8 3 -4 20 -6 39 -6 18 1 39 -4 47 -10
12 -9 13 -8 6 4 -7 12 -6 13 6 3 8 -7 33 -15 54 -17 22 -3 41 -10 43 -16 2 -5
7 -8 12 -5 4 3 20 -1 35 -9 15 -8 34 -12 41 -9 8 3 14 0 14 -6 0 -9 5 -9 21 0
15 8 19 8 15 0 -7 -10 8 -15 41 -14 7 1 10 -3 7 -8 -3 -5 4 -9 16 -9 11 0 23
-7 26 -15 4 -8 10 -13 14 -10 12 7 100 -37 94 -47 -3 -4 1 -5 9 -2 8 3 21 -2
30 -10 9 -9 20 -16 24 -16 5 0 18 -8 29 -18 10 -10 23 -19 27 -19 5 -1 19 -9
31 -19 11 -11 37 -30 56 -43 29 -21 116 -111 168 -175 7 -9 19 -13 25 -9 7 4
5 -2 -3 -12 -8 -10 -10 -16 -4 -12 10 6 25 -12 28 -33 1 -3 11 -16 23 -29 12
-13 20 -28 17 -33 -3 -4 2 -11 10 -14 9 -3 14 -10 11 -14 -3 -4 2 -10 10 -14
8 -3 15 -15 15 -26 0 -11 5 -20 10 -20 6 0 10 -9 10 -20 0 -11 5 -20 11 -20 5
0 8 -4 4 -9 -3 -5 2 -16 11 -25 8 -9 13 -20 10 -25 -4 -5 -1 -11 5 -13 7 -2
13 -15 15 -29 1 -13 3 -28 3 -32 1 -5 5 -6 10 -3 5 4 8 -5 7 -19 -2 -14 3 -36
10 -50 7 -14 13 -38 12 -53 0 -15 4 -59 9 -99 5 -40 5 -82 0 -95 -4 -13 -9
-40 -9 -61 0 -20 -4 -40 -9 -43 -5 -3 -9 -14 -9 -25 0 -11 -7 -27 -15 -36 -8
-8 -13 -18 -11 -21 3 -6 -45 -8 -80 -3 -6 0 -17 13 -23 29 -6 15 -25 42 -41
61 -17 18 -30 37 -30 40 0 8 -61 46 -75 47 -5 0 -23 6 -38 12 -36 15 -88 15
-124 0 -15 -6 -34 -10 -41 -9 -7 1 -15 -5 -18 -13 -3 -9 -10 -13 -15 -11 -13
9 -60 -26 -52 -39 3 -6 2 -8 -2 -3 -11 9 -95 -72 -95 -92 0 -8 -3 -11 -7 -8
-3 4 -19 -11 -36 -33 -24 -34 -27 -43 -16 -56 7 -8 18 -13 26 -10 9 4 11 1 7
-6 -5 -8 -2 -9 9 -5 11 4 26 -3 42 -19 14 -14 29 -23 34 -20 5 3 11 -1 15 -9
3 -8 12 -12 19 -9 8 3 17 -2 20 -10 4 -9 13 -13 22 -10 8 4 15 1 15 -6 0 -7 7
-10 16 -6 10 4 13 2 8 -6 -5 -8 -2 -9 11 -4 11 4 22 2 26 -6 10 -17 121 -17
141 0 8 6 18 9 21 6 13 -13 141 101 131 117 -2 4 3 10 12 13 8 3 13 10 10 15
-8 12 19 21 62 20 20 0 31 -3 25 -6 -7 -2 -13 -11 -13 -19 0 -8 -3 -14 -7 -14
-5 0 -16 -14 -25 -31 -10 -17 -22 -27 -28 -24 -6 4 -9 1 -8 -7 2 -7 -3 -12
-10 -10 -6 1 -11 -3 -10 -10 2 -7 -2 -12 -9 -13 -6 0 -21 -11 -32 -24 -12 -13
-21 -20 -21 -15 0 5 -6 2 -13 -7 -10 -13 -42 -30 -57 -30 -3 0 -13 -8 -23 -16
-9 -9 -20 -13 -24 -10 -3 4 -16 1 -28 -7 -23 -15 -207 -27 -198 -13 2 4 -7 5
-21 1 -15 -4 -33 0 -47 10 -16 11 -27 12 -40 5 -15 -7 -17 -6 -13 6 4 10 0 15
-12 15 -23 1 -54 23 -54 39 0 7 -4 9 -10 6 -5 -3 -10 2 -10 11 0 10 -3 15 -6
11 -7 -6 -34 17 -34 29 0 4 -8 13 -17 21 -10 8 -12 12 -6 8 9 -4 11 -1 7 9 -3
9 -10 14 -14 11 -11 -7 -22 24 -13 38 4 6 0 8 -10 4 -14 -5 -15 -2 -7 18 6 16
6 25 0 25 -6 0 -10 16 -10 35 0 20 -5 35 -12 35 -6 0 -3 7 8 16 17 14 17 15 1
10 -10 -3 -15 -2 -12 3 3 5 1 12 -4 16 -13 8 -23 -68 -18 -136 5 -59 13 -83
26 -75 4 3 7 -5 6 -17 -1 -12 1 -24 4 -27 3 -3 11 -14 18 -25 6 -11 16 -19 21
-18 6 2 9 -6 7 -17 -3 -13 1 -17 11 -13 10 3 14 -2 14 -18 0 -15 3 -20 8 -12
5 9 12 6 21 -10 13 -19 12 -21 -1 -10 -8 7 -17 10 -21 7 -9 -9 -48 6 -42 17 4
5 -1 12 -9 15 -9 3 -16 12 -16 18 0 14 -60 71 -60 59 0 -5 -7 1 -15 11 -8 11
-15 16 -15 10 0 -5 -4 -3 -9 5 -11 17 -173 20 -179 3 -2 -6 -9 -9 -16 -6 -8 3
-20 -1 -27 -8 -8 -7 -21 -14 -29 -16 -8 -2 -18 -9 -22 -15 -4 -7 -8 -7 -8 -2
0 6 -7 1 -15 -9 -8 -11 -15 -16 -15 -12 0 5 -7 2 -17 -5 -9 -8 -26 -14 -37
-14 -35 0 -31 -33 8 -69 20 -18 36 -38 36 -45 0 -7 5 -9 10 -6 6 3 10 -1 10
-9 0 -9 5 -16 10 -16 6 0 9 -6 8 -12 -2 -7 3 -12 10 -10 6 1 11 -1 10 -5 -2
-5 0 -8 4 -8 4 0 14 -9 23 -20 9 -11 14 -13 10 -5 -4 8 2 4 13 -9 10 -13 24
-21 30 -17 6 3 14 1 18 -5 4 -8 9 -7 15 2 7 11 9 11 9 -2 0 -13 9 -16 48 -13
26 1 63 8 82 15 19 8 39 12 44 11 12 -4 57 39 51 48 -3 5 2 11 11 14 8 3 13
10 10 15 -3 5 1 12 10 15 8 3 12 10 9 16 -3 5 1 10 10 10 9 0 14 3 12 8 -7 10
87 10 94 0 3 -5 14 -10 25 -13 44 -10 104 -31 100 -35 -5 -5 13 -7 117 -11 37
-1 70 1 74 4 3 4 17 7 31 7 18 0 23 4 18 16 -3 8 -2 12 4 9 5 -3 14 4 20 15 6
11 20 20 30 20 23 0 25 -10 8 -29 -10 -10 -7 -10 17 1 17 7 33 16 36 21 3 4
15 9 27 10 11 0 19 4 16 8 -4 7 29 22 49 24 15 0 36 37 30 53 -4 13 -3 14 5 3
7 -9 12 -10 16 -2 4 6 12 9 17 5 5 -3 8 -2 7 3 -2 5 7 21 20 37 12 16 22 25
22 21 0 -5 11 2 25 15 14 13 25 31 25 40 0 9 9 26 20 38 12 12 16 22 10 22 -6
0 -2 10 10 22 17 19 26 52 21 81 -1 5 3 6 8 3 14 -9 19 15 10 47 -5 16 -4 25
2 22 5 -4 9 5 9 19 0 15 -8 30 -20 36 -28 15 -27 54 1 47 15 -4 19 -2 15 9 -3
8 -2 14 2 14 5 0 7 24 5 53 -2 28 -5 67 -6 85 -1 17 -5 32 -9 32 -3 0 -4 9 -1
20 3 12 0 20 -7 20 -7 0 -10 7 -6 15 3 8 1 15 -3 15 -5 0 -7 10 -3 22 3 13 1
19 -5 15 -6 -4 -10 4 -10 19 0 15 -4 29 -9 33 -5 3 -11 15 -12 26 -2 11 -8 22
-13 23 -5 2 -7 7 -4 12 3 5 -2 15 -10 24 -9 8 -15 18 -15 21 5 21 -8 29 -26
15 -19 -14 -19 -14 0 8 18 20 15 27 -8 23 -5 -1 -6 8 -3 20 3 11 3 18 0 15 -4
-3 -15 8 -25 25 -10 16 -23 27 -28 24 -6 -3 -10 -1 -10 4 0 6 5 11 10 11 6 0
10 5 10 11 0 5 -4 7 -10 4 -5 -3 -10 1 -10 9 0 9 -5 16 -11 16 -5 0 -7 5 -3
11 4 7 -1 9 -12 7 -11 -2 -18 -9 -17 -14 1 -6 -8 -16 -19 -23 -20 -13 -20 -13
1 17 23 32 27 52 11 52 -5 0 -10 6 -10 13 0 8 -18 28 -40 46 -22 17 -40 36
-40 42 0 13 -41 53 -63 62 -11 4 -15 12 -11 18 4 7 3 9 -4 5 -6 -3 -13 -2 -17
4 -11 18 -44 12 -40 -8 2 -11 -3 -19 -11 -19 -9 0 -11 4 -4 12 6 7 2 15 -11
24 -19 11 -19 13 -5 24 15 11 15 14 1 32 -9 11 -14 13 -10 5 4 -8 -1 -6 -10 5
-9 11 -21 19 -26 18 -5 -2 -9 1 -9 6 0 5 -8 8 -17 7 -10 -2 -18 -8 -18 -14 0
-6 -3 -13 -7 -17 -9 -9 -5 16 5 33 10 15 -1 35 -14 26 -6 -3 -17 2 -24 12 -8
11 -15 15 -15 10 0 -5 -9 -1 -20 9 -11 10 -20 14 -20 10 0 -4 -8 -1 -17 8 -10
8 -22 16 -28 18 -12 2 -24 5 -45 12 -8 2 -19 5 -25 6 -5 2 -23 10 -40 20 -16
10 -40 17 -52 16 -12 -1 -21 3 -20 9 1 6 -5 10 -14 8 -9 -1 -28 4 -42 11 -15
8 -37 13 -49 12 -13 -1 -26 2 -29 8 -4 5 -20 9 -35 9 -16 0 -33 4 -39 8 -19
14 -57 19 -81 10 -13 -5 -24 -6 -24 -1 0 17 -91 29 -247 35 -24 0 -43 5 -43
10 0 9 -350 1 -405 -9 -27 -5 -28 -4 -11 7 33 21 102 91 115 116 7 12 9 28 5
34 -4 7 -3 8 4 4 11 -7 13 -3 16 37 1 6 5 15 9 18 5 4 9 22 10 40 1 19 5 36 9
39 4 4 9 22 10 42 2 20 5 34 7 32 4 -4 30 27 31 37 1 24 -234 33 -312 13z"/>
<path d="M795 12812 c-10 -10 -5 -32 8 -32 17 0 64 -45 72 -70 3 -11 13 -20
21 -20 18 0 12 29 -18 78 -11 17 -15 32 -9 32 5 0 18 -13 28 -30 9 -16 20 -30
23 -30 3 0 7 -12 8 -27 2 -25 16 -42 35 -43 11 0 -1 57 -20 95 l-15 30 22 -21
c13 -13 24 -39 27 -65 6 -40 16 -58 36 -59 10 0 9 14 -5 47 -13 33 -20 63 -13
63 11 0 35 -61 35 -89 0 -16 5 -33 11 -36 21 -13 23 7 7 53 -19 51 -16 66 7
36 13 -18 31 -89 27 -106 -1 -5 4 -8 12 -8 8 0 17 -6 19 -12 3 -7 3 5 0 27 -4
22 -10 43 -15 46 -5 3 -8 10 -6 15 4 15 -45 83 -65 90 -9 3 -14 10 -11 16 5 7
2 8 -6 3 -7 -4 -16 -2 -20 5 -8 12 -183 23 -195 12z"/>
<path d="M18238 12813 c-21 -2 -38 -8 -38 -14 0 -5 -7 -9 -16 -9 -8 0 -12 -4
-9 -10 3 -5 1 -10 -6 -10 -15 0 -47 -36 -55 -64 -4 -11 -11 -27 -18 -35 -6 -8
-11 -26 -12 -41 -1 -22 2 -27 17 -23 13 4 19 14 19 34 0 36 25 99 40 99 6 0 5
-13 -5 -36 -17 -41 -20 -74 -6 -74 5 0 12 20 15 45 4 24 16 54 26 67 23 28 26
12 5 -28 -18 -35 -20 -67 -2 -61 6 2 12 16 12 30 -1 14 3 23 7 21 7 -5 12 20
11 54 -1 7 2 11 5 8 3 -3 11 -1 19 5 17 15 16 1 -2 -31 -25 -44 -15 -94 12
-57 5 6 15 29 22 51 13 38 45 79 55 69 3 -3 -4 -17 -14 -32 -28 -38 -36 -81
-16 -81 9 0 16 7 16 15 0 21 66 89 74 76 3 -5 -7 -22 -24 -38 -42 -39 -38 -52
5 -14 20 17 43 31 53 31 13 0 9 -6 -13 -25 -39 -32 -26 -32 21 0 43 29 58 25
23 -5 -22 -20 -22 -20 -2 -11 12 6 33 11 47 11 37 0 32 14 -9 30 -19 8 -35 17
-35 22 0 4 -8 8 -18 8 -10 0 -22 3 -26 7 -13 13 -116 22 -178 16z"/>
<path d="M1845 12730 c-33 -3 -69 -10 -80 -15 -29 -12 -80 -57 -77 -67 1 -4
-1 -8 -6 -8 -9 0 -30 -48 -34 -80 -2 -14 -7 -31 -11 -38 -8 -12 -6 -45 9 -164
9 -75 15 -83 44 -58 26 23 34 26 24 8 -4 -7 2 -5 14 6 13 11 30 16 42 13 11
-3 20 -1 20 5 0 5 5 6 10 3 6 -3 10 -1 10 5 0 6 6 10 13 9 27 -3 39 2 34 15
-4 11 -1 13 10 9 12 -5 14 -3 8 7 -5 9 -4 11 4 6 6 -4 23 0 38 9 14 10 22 12
18 4 -5 -8 -4 -10 3 -5 7 4 12 14 12 23 0 9 3 13 7 10 5 -6 40 56 48 86 2 4 4
8 5 10 10 10 5 109 -7 139 -15 36 -16 36 -40 21 -21 -14 -22 -18 -10 -37 16
-25 23 -121 9 -130 -5 -3 -12 19 -14 51 -3 31 -10 59 -17 61 -6 2 -9 8 -5 13
3 5 0 9 -7 9 -7 0 -9 -9 -5 -27 4 -16 9 -53 11 -83 5 -59 6 -61 -26 53 -8 32
-13 36 -25 26 -20 -17 -17 -34 4 -18 15 12 16 12 5 -2 -9 -11 -10 -24 -1 -52
8 -25 8 -49 1 -79 l-11 -43 -1 60 c-2 66 -22 118 -37 94 -5 -8 -7 -42 -5 -76
3 -63 -4 -103 -18 -103 -4 0 -8 7 -8 15 0 8 4 15 9 15 9 0 11 64 2 98 -5 17
-10 20 -19 12 -8 -7 -11 -26 -7 -56 5 -44 -14 -124 -29 -124 -4 0 0 22 9 50
12 38 13 54 4 72 -9 20 -11 17 -12 -27 0 -27 -7 -63 -15 -80 -16 -35 -18 -25
-6 28 5 21 5 39 0 42 -8 5 -13 -8 -22 -60 -2 -11 -9 -19 -15 -17 -7 1 -12 -2
-12 -6 0 -5 -7 -17 -16 -28 -15 -18 -15 -18 -10 8 4 15 1 28 -5 30 -7 2 1 18
17 38 l29 35 -27 -18 c-22 -14 -28 -15 -28 -3 0 7 13 19 30 26 29 12 60 40 44
40 -5 0 -18 -7 -28 -15 -23 -18 -40 -20 -30 -4 3 6 27 21 53 32 54 25 33 36
-23 13 -20 -8 -36 -11 -36 -7 0 11 74 41 100 41 10 0 22 4 25 10 9 14 -39 23
-83 16 -30 -5 -33 -4 -19 5 10 6 45 11 78 11 90 1 89 26 -1 39 l-45 6 48 2
c27 0 57 -3 67 -9 13 -7 21 -6 29 4 9 11 5 16 -20 25 -18 6 -42 11 -54 11 -13
0 -29 8 -36 18 -11 14 -11 15 1 5 8 -7 31 -13 51 -13 21 0 48 -4 62 -9 14 -6
29 -6 38 0 12 7 12 9 -1 10 -8 1 -19 3 -25 3 -5 1 -16 5 -23 10 -7 4 -24 5
-38 2 -14 -4 -24 -2 -24 4 0 13 95 13 119 0 13 -6 24 -5 37 5 17 13 18 14 2
15 -10 0 -18 5 -18 10 0 6 -6 9 -12 8 -7 0 -40 -4 -73 -8z"/>
<path d="M17265 12722 c-3 -8 -10 -10 -17 -6 -10 6 -9 3 0 -9 10 -12 19 -14
38 -6 32 11 124 12 124 0 0 -4 -10 -6 -23 -4 -30 6 -87 -9 -86 -22 0 -10 30
-8 39 3 6 9 109 9 104 1 -2 -4 -26 -9 -53 -13 -48 -6 -71 -19 -53 -29 4 -3 36
-2 70 2 35 4 65 4 67 0 3 -3 -18 -9 -45 -11 -28 -3 -53 -8 -56 -11 -16 -15 13
-27 69 -28 34 0 71 -5 82 -10 14 -6 4 -7 -32 -3 -54 6 -104 -8 -72 -21 9 -3
28 -7 42 -9 27 -3 82 -34 74 -43 -3 -2 -19 3 -37 12 -17 9 -39 15 -48 13 -11
-3 0 -12 31 -25 26 -12 47 -27 47 -33 0 -6 5 -8 12 -4 7 4 8 3 4 -5 -8 -12
-19 -8 -49 17 -9 8 -20 12 -25 7 -4 -4 -2 -9 3 -11 28 -11 75 -45 75 -55 0 -7
-10 -5 -26 6 -14 9 -28 15 -30 12 -3 -2 7 -12 21 -21 22 -14 38 -55 17 -42 -5
3 -7 -9 -5 -27 l3 -32 -20 40 c-11 22 -18 32 -16 23 3 -10 1 -18 -4 -18 -6 0
-11 11 -11 25 -2 34 -3 37 -17 60 -12 18 -13 15 -8 -20 3 -22 9 -51 12 -65 l5
-25 -15 25 c-8 14 -15 19 -16 12 0 -10 -3 -10 -13 0 -8 7 -14 17 -14 23 0 5
-5 29 -11 52 -6 27 -6 41 0 37 5 -4 8 8 6 27 -5 57 -23 38 -26 -28 -2 -41 1
-63 8 -63 6 0 8 -5 4 -11 -15 -25 -29 16 -30 89 -1 98 -2 101 -19 78 -10 -13
-15 -43 -15 -84 0 -39 -4 -61 -10 -57 -15 9 -12 101 4 140 13 30 13 34 -1 39
-19 8 -21 6 -26 -20 -2 -10 -7 -26 -10 -34 -3 -8 -8 -28 -11 -45 -2 -16 -3 -3
-1 30 2 33 6 70 10 83 11 33 -13 28 -26 -5 -6 -16 -11 -47 -12 -70 -1 -24 -5
-43 -9 -43 -12 0 -9 96 3 124 9 20 9 29 -1 41 -7 8 -16 12 -21 9 -5 -3 -9 1
-9 8 0 8 -5 6 -11 -5 -16 -27 -15 -172 2 -204 8 -16 16 -30 20 -33 3 -3 13
-16 22 -30 9 -13 17 -19 17 -13 0 7 12 1 26 -12 15 -14 33 -25 41 -25 8 0 12
-3 10 -7 -3 -5 5 -9 16 -10 52 -5 98 -24 90 -37 -4 -6 0 -6 9 2 13 10 17 10
22 -3 3 -9 10 -13 16 -10 5 3 10 1 10 -5 0 -6 5 -8 10 -5 6 3 10 0 11 -7 1
-26 32 58 35 97 10 111 9 140 -3 138 -9 -2 -10 4 -3 21 6 17 5 29 -5 42 -8 11
-15 25 -15 32 0 18 -51 72 -85 90 -42 22 -173 32 -180 14z"/>
<path d="M18510 12720 c-22 -7 -20 -8 15 -10 22 -1 32 -4 22 -7 -10 -3 -14 -9
-10 -16 4 -7 0 -7 -10 1 -9 8 -24 12 -34 9 -14 -4 -13 -5 5 -6 13 0 21 -5 17
-10 -3 -6 -15 -7 -28 -4 -88 21 -105 10 -20 -13 47 -12 47 -13 13 -13 -20 -1
-52 8 -73 18 -20 10 -40 15 -43 10 -3 -5 1 -9 10 -9 8 0 16 -5 18 -10 2 -6 26
-15 53 -19 l50 -9 -50 -1 c-38 -1 -59 5 -86 23 -23 16 -40 21 -49 16 -16 -10
38 -47 83 -57 40 -8 41 -20 2 -19 -19 1 -35 4 -35 9 0 4 -5 7 -11 7 -6 0 -26
12 -45 27 -28 20 -37 23 -47 14 -9 -10 -5 -18 18 -37 17 -13 45 -29 63 -35 17
-6 32 -15 32 -20 0 -12 -5 -12 -45 5 -18 8 -36 12 -39 10 -3 -2 -4 -1 -2 2 3
3 -11 20 -30 36 -26 23 -38 28 -46 20 -9 -9 -7 -17 7 -32 19 -21 41 -28 29 -8
-4 7 -3 8 5 4 6 -4 9 -11 6 -16 -3 -5 8 -16 26 -25 17 -9 29 -18 27 -21 -7 -6
-72 18 -80 30 -4 6 -8 8 -8 4 0 -4 -10 3 -23 15 -13 12 -21 27 -19 32 3 6 -1
4 -8 -2 -18 -16 9 -47 65 -76 22 -11 35 -22 29 -24 -18 -6 -60 14 -97 47 -31
27 -39 30 -57 20 -24 -13 -22 -29 5 -44 11 -6 25 -17 33 -23 7 -7 31 -18 52
-24 22 -7 38 -15 36 -18 -6 -8 88 -8 94 1 3 4 18 9 34 12 16 3 35 14 43 26 8
11 21 20 29 20 8 0 14 5 14 10 0 6 8 10 17 10 9 0 14 3 10 6 -3 3 4 17 16 29
33 35 62 79 59 88 -1 5 2 6 7 3 5 -3 16 -3 25 0 12 5 10 11 -13 30 -16 13 -30
24 -32 23 -2 -1 -15 -5 -29 -9z"/>
<path d="M604 12697 c-8 -9 -7 -16 2 -24 6 -7 15 -9 18 -6 3 4 6 1 6 -6 0 -7
4 -9 10 -6 5 3 15 -5 21 -19 7 -14 17 -23 22 -19 6 4 8 0 4 -10 -4 -11 -1 -17
9 -17 8 0 12 -4 9 -10 -3 -5 1 -10 9 -10 9 0 16 -4 16 -10 0 -5 8 -10 18 -10
14 0 15 -2 2 -10 -13 -8 -12 -10 3 -10 10 0 15 -5 12 -11 -4 -6 -1 -9 6 -8 15
3 56 -16 75 -35 9 -9 45 -11 127 -6 5 0 6 4 3 9 -4 5 5 8 18 7 14 -2 30 1 38
6 9 7 8 8 -5 4 -10 -3 -16 -2 -13 2 3 5 23 14 45 22 22 7 38 17 35 21 -3 5 0
9 5 9 18 0 12 14 -10 28 -19 12 -24 11 -48 -12 -39 -37 -141 -77 -109 -42 7 8
16 12 19 10 9 -5 89 54 89 66 0 18 -26 11 -48 -13 -12 -13 -19 -27 -15 -32 5
-4 3 -5 -4 -1 -7 4 -26 0 -42 -9 -35 -18 -41 -18 -41 -5 0 6 5 10 11 10 20 0
69 41 63 52 -4 6 -2 8 3 5 6 -4 16 0 22 7 25 30 -10 27 -45 -4 -35 -30 -50
-38 -101 -54 -36 -11 -27 9 10 22 18 6 42 19 52 28 11 8 13 12 5 8 -9 -4 -12
-3 -7 2 5 5 12 9 15 9 15 0 32 17 26 26 -4 6 -11 6 -20 -2 -8 -6 -14 -8 -14
-4 0 3 -12 -3 -26 -14 -15 -12 -33 -21 -40 -21 -8 0 -14 -3 -14 -7 0 -5 -17
-9 -37 -10 -26 -1 -33 1 -23 7 8 6 23 10 33 10 10 0 15 5 12 11 -4 6 -21 10
-39 9 -59 -4 -71 2 -21 11 27 4 51 13 53 19 2 5 8 8 13 4 5 -3 9 1 9 10 0 12
-7 11 -40 -5 -21 -10 -54 -19 -72 -18 -30 0 -29 1 15 13 70 19 71 29 2 23 -42
-4 -53 -3 -35 3 20 8 16 9 -22 7 -27 -1 -48 1 -48 5 0 12 -14 9 -26 -5z"/>
<path d="M1041 12161 c-12 -8 -12 -12 -2 -24 6 -9 9 -26 6 -40 -4 -13 -1 -51
5 -83 7 -33 14 -72 15 -87 2 -15 8 -34 15 -42 6 -8 8 -20 4 -26 -4 -8 -3 -9 4
-5 7 4 12 1 12 -7 0 -8 11 -22 24 -33 14 -10 23 -21 21 -25 -3 -4 3 -6 13 -5
9 0 16 -4 15 -11 -2 -7 4 -10 12 -7 8 4 15 1 15 -5 0 -6 7 -8 17 -4 10 4 14 2
10 -4 -4 -6 3 -8 18 -5 14 2 31 -1 38 -6 11 -10 65 -8 75 2 1 2 -2 15 -7 29
-10 25 -14 26 -53 21 -29 -4 -56 -1 -82 10 -47 19 -44 30 5 16 50 -15 96 -12
103 5 4 12 -5 15 -52 15 -62 0 -102 8 -102 20 0 4 23 3 50 -3 45 -9 53 -8 66
9 9 10 13 13 9 7 -3 -7 -1 -13 5 -13 7 0 10 6 8 13 -3 7 -32 14 -74 18 -38 3
-78 10 -89 17 -26 15 -6 15 50 1 54 -14 97 -6 89 16 -5 11 -19 14 -54 12 -27
-1 -47 0 -44 4 5 9 -43 18 -53 10 -4 -3 -5 -2 -1 3 4 5 -3 17 -15 28 l-22 19
23 -11 c43 -21 44 2 1 28 -24 14 -38 27 -31 30 10 3 10 7 1 18 -15 18 -1 17
31 -1 35 -20 57 -20 40 0 -7 8 -20 15 -30 15 -10 0 -24 8 -31 17 -12 15 -12
16 6 10 16 -6 15 -3 -5 12 -13 11 -29 17 -34 14 -5 -3 -6 -1 -3 4 17 27 97 -1
97 -33 0 -8 4 -14 10 -14 6 0 6 9 0 25 -5 14 -6 25 -1 25 5 0 15 -17 21 -37
13 -41 37 -73 27 -38 -2 11 -8 28 -12 38 -5 12 -3 16 7 12 8 -3 15 -22 16 -42
3 -41 10 -56 21 -48 5 2 7 26 4 52 -3 33 -1 44 5 34 6 -7 10 -39 9 -69 0 -31
5 -58 11 -60 11 -3 29 44 34 89 3 28 -18 62 -33 53 -5 -3 -9 0 -9 6 0 6 -5 8
-10 5 -6 -4 -16 -2 -23 3 -7 5 -37 12 -67 15 -30 3 -68 8 -85 12 -16 3 -36 1
-44 -4z"/>
<path d="M18085 12159 c-27 -5 -66 -11 -85 -13 -46 -7 -82 -17 -96 -27 -6 -5
-14 -6 -17 -2 -4 3 -9 -2 -13 -11 -3 -9 -10 -16 -15 -16 -15 0 -55 -44 -72
-79 -28 -56 -19 -173 17 -230 7 -11 10 -11 17 2 6 10 3 27 -10 49 -21 37 -35
108 -20 108 5 0 9 -9 9 -21 0 -12 7 -37 16 -56 13 -25 20 -31 28 -23 8 8 7 15
-4 23 -16 13 -21 25 -28 75 -2 17 0 32 4 32 5 0 10 -12 11 -26 0 -15 6 -30 13
-34 6 -4 11 -11 10 -16 -1 -5 3 -10 9 -12 16 -5 14 10 -10 62 -11 26 -18 55
-16 64 3 15 5 14 12 -3 27 -71 38 -88 46 -72 6 9 5 26 -1 42 -5 14 -9 47 -9
73 1 26 3 36 5 22 9 -53 25 -100 34 -95 6 4 10 30 10 58 0 29 5 59 10 67 6 10
7 -2 3 -37 -4 -37 -2 -53 6 -53 6 0 11 11 11 24 0 31 20 86 31 86 6 0 5 -9 -1
-21 -6 -11 -9 -28 -7 -37 4 -19 5 -17 23 42 5 16 15 31 22 34 11 3 12 0 2 -18
-6 -12 -9 -24 -7 -27 3 -3 13 9 22 26 16 31 35 41 35 19 0 -9 3 -9 12 0 7 7
19 12 28 12 10 0 5 -9 -15 -26 -16 -14 -25 -23 -18 -20 6 4 14 2 17 -3 4 -5
-8 -13 -26 -16 -34 -8 -58 -22 -58 -35 0 -5 9 -6 20 -3 11 3 20 10 20 16 0 6
3 7 6 4 4 -3 15 -2 25 4 11 5 19 6 19 0 0 -13 -63 -41 -93 -41 -13 0 -30 -7
-37 -15 -10 -13 -9 -15 9 -15 11 0 21 5 21 11 0 5 4 8 9 5 4 -3 25 3 46 14 51
26 56 18 8 -14 -23 -16 -51 -26 -74 -26 -22 0 -42 -7 -50 -17 -13 -15 -9 -16
40 -11 29 3 56 9 60 14 12 18 37 14 37 -6 0 -11 -4 -16 -9 -11 -5 5 -23 3 -43
-5 -18 -8 -51 -14 -73 -14 -42 0 -63 -16 -40 -31 14 -9 46 -7 119 7 33 6 34 6
15 -9 -11 -8 -23 -13 -27 -11 -5 3 -8 2 -8 -3 0 -4 -29 -7 -64 -5 -49 3 -65 0
-69 -11 -8 -21 56 -31 102 -17 19 5 37 8 39 5 10 -10 -53 -25 -104 -25 -40 0
-54 -3 -51 -12 6 -18 116 -15 128 3 7 11 9 11 9 -3 0 -15 -34 -35 -52 -30 -5
1 -8 -2 -8 -7 0 -5 -18 -5 -42 1 -36 8 -44 6 -55 -8 -27 -37 -4 -66 35 -45 11
6 41 12 66 13 25 0 46 5 46 10 0 5 4 7 9 4 12 -8 82 63 84 85 1 12 7 17 15 14
7 -3 10 0 7 6 -4 5 -3 15 2 22 5 7 10 26 12 42 1 17 7 34 12 40 12 12 12 102
-1 110 -5 3 -1 20 10 40 16 29 17 34 4 39 -9 3 -16 5 -17 5 -1 -1 -24 -5 -52
-10z"/>
<path d="M1319 12053 c1 -55 -2 -83 -9 -83 -3 0 -6 -9 -7 -20 -1 -11 2 -20 7
-20 12 0 31 36 23 44 -3 3 -1 6 5 6 6 0 13 10 15 23 3 17 5 16 6 -8 0 -16 -8
-45 -19 -63 -15 -24 -18 -38 -11 -50 8 -14 14 -7 35 38 14 31 25 46 25 35 0
-11 -8 -40 -19 -64 -24 -52 -25 -68 -5 -51 9 7 20 32 26 57 15 59 28 63 17 5
-5 -26 -9 -52 -10 -59 -1 -7 -7 -14 -15 -17 -15 -6 -18 -42 -3 -51 6 -3 10 -1
10 5 0 6 3 9 8 7 4 -3 8 6 9 20 0 14 5 28 10 32 8 6 11 20 13 81 3 60 1 72
-13 67 -9 -3 -13 4 -12 22 1 31 -40 81 -67 81 -15 0 -19 -8 -19 -37z"/>
<path d="M17883 10996 c3 -8 -6 -10 -30 -8 -23 3 -41 -2 -55 -14 -14 -13 -19
-14 -14 -4 5 8 -3 3 -16 -12 -14 -15 -27 -25 -30 -22 -3 3 -8 -7 -12 -21 -4
-14 -11 -25 -17 -25 -6 0 -8 -4 -5 -9 3 -5 -1 -14 -9 -21 -7 -6 -12 -17 -9
-25 3 -7 -1 -27 -10 -43 -9 -18 -13 -42 -10 -64 4 -22 0 -46 -10 -65 -8 -17
-12 -33 -9 -37 4 -3 1 -6 -6 -6 -9 0 -9 -3 1 -14 9 -9 21 -11 39 -6 15 5 31 4
37 -2 6 -6 26 -5 55 3 26 6 53 9 61 6 9 -4 36 5 60 19 25 14 51 22 57 18 7 -4
9 -3 5 4 -3 6 3 13 14 17 11 3 20 11 20 16 0 5 7 9 16 9 8 0 12 4 9 10 -3 5 1
20 9 32 12 16 13 25 4 35 -6 8 -7 13 -2 12 28 -5 30 2 21 69 -5 37 -10 74 -10
83 -1 9 -7 21 -14 27 -9 9 -13 7 -18 -9 -4 -12 -3 -24 1 -28 12 -8 17 -28 20
-81 l3 -45 -10 43 c-6 23 -15 42 -20 42 -6 0 -8 4 -4 9 3 5 1 12 -5 16 -14 9
-12 -17 5 -58 8 -20 15 -49 15 -63 0 -31 -12 -25 -17 9 -6 41 -25 79 -35 69
-11 -11 -1 -55 10 -48 4 2 8 -19 9 -48 2 -46 1 -48 -8 -21 -24 71 -29 78 -44
65 -11 -9 -12 -17 -5 -30 6 -10 9 -43 9 -72 l-1 -53 -9 49 c-8 52 -25 80 -33
55 -2 -8 -6 -36 -9 -62 -5 -55 -11 -64 -31 -48 -11 9 -15 8 -20 -5 -4 -9 -9
-14 -12 -11 -3 3 0 15 6 27 6 11 9 26 7 33 -2 7 -14 -10 -25 -37 -12 -27 -25
-47 -28 -43 -3 3 0 15 6 27 18 34 4 35 -16 1 -10 -17 -24 -31 -32 -31 -7 0
-10 5 -6 11 4 7 -1 7 -16 -1 -17 -9 -25 -9 -34 1 -6 6 -6 9 -1 6 6 -3 22 3 35
13 l25 19 -25 -5 -25 -5 25 15 c14 8 32 15 41 16 19 0 49 30 30 30 -6 0 -27
-7 -46 -14 -19 -8 -35 -11 -35 -7 0 11 44 28 93 37 20 3 40 10 43 15 10 17
-47 9 -87 -12 -23 -11 -43 -18 -45 -16 -10 10 72 51 94 48 16 -2 22 1 17 9 -5
7 0 7 14 -2 18 -11 23 -10 38 5 16 16 15 17 -33 17 -28 0 -54 -3 -58 -7 -8 -8
-46 -15 -46 -8 0 13 52 29 109 34 74 7 92 26 35 37 -27 5 -46 2 -67 -9 -15 -9
-25 -12 -21 -6 4 8 -1 9 -17 4 -18 -6 -21 -4 -13 5 15 15 116 29 142 19 13 -5
25 -3 32 6 16 19 -1 27 -58 25 -74 -3 -80 -2 -62 11 8 5 42 8 75 7 34 -2 61 1
63 7 1 6 -1 10 -5 11 -5 0 -19 4 -33 8 -14 4 -37 3 -51 -3 -14 -5 -32 -6 -39
-1 -18 11 38 22 101 19 35 -2 53 1 60 12 14 22 11 42 -6 36 -8 -4 -17 -2 -20
2 -8 14 -77 11 -72 -3z"/>
<path d="M1171 10946 c-30 -74 -37 -196 -12 -204 6 -2 8 -9 4 -15 -4 -7 1 -6
10 2 15 12 17 12 12 -1 -4 -9 4 -26 19 -41 14 -14 22 -28 19 -31 -4 -3 3 -6
15 -6 12 0 22 -4 22 -9 0 -5 13 -8 29 -7 17 1 28 -1 25 -5 -5 -8 32 -19 68
-19 15 0 29 -4 32 -8 3 -5 15 -8 28 -6 13 1 31 3 41 3 21 1 22 17 1 25 -8 3
-12 2 -9 -4 3 -6 0 -10 -8 -10 -8 0 -24 15 -36 33 -13 21 -21 26 -21 15 0 -9
5 -20 10 -23 12 -8 13 -25 1 -25 -4 0 -18 23 -30 52 -12 28 -24 49 -27 45 -3
-3 2 -19 10 -36 22 -41 20 -51 -4 -22 -11 13 -20 34 -20 47 0 12 -5 26 -12 30
-8 5 -9 -6 -4 -42 5 -39 4 -46 -6 -36 -7 7 -13 35 -14 63 0 27 -6 55 -13 62
-11 10 -13 6 -9 -20 2 -18 1 -30 -3 -27 -4 2 -9 -11 -11 -29 -3 -34 -3 -34
-23 -14 -11 11 -15 17 -9 14 13 -7 37 104 25 116 -10 10 -31 -23 -42 -68 l-7
-30 -1 33 c-1 18 6 46 14 63 11 21 13 34 6 47 -8 14 -11 14 -12 2 -1 -8 -1
-19 0 -23 1 -5 -3 -6 -8 -3 -5 4 -14 -13 -19 -36 -9 -41 -10 -41 -11 -10 -1
18 6 49 14 69 19 46 19 61 -1 42 -8 -9 -18 -35 -21 -58 -3 -22 -10 -41 -16
-41 -12 0 -1 73 17 109 8 15 10 34 6 46 -7 18 -9 18 -19 -9z"/>
<path d="M1483 2890 c9 -6 22 -8 27 -5 6 3 10 3 10 0 0 -9 -23 -31 -40 -38
-11 -4 -9 -6 5 -6 17 -1 17 -3 5 -11 -8 -5 -24 -10 -36 -10 -11 0 -29 -9 -39
-20 -17 -19 -17 -19 12 -11 17 5 40 14 51 20 29 15 37 14 22 -4 -7 -8 -9 -15
-4 -15 5 -1 -1 -9 -13 -19 -12 -10 -19 -22 -15 -26 4 -5 2 -5 -5 -1 -7 4 -27
0 -45 -7 -19 -8 -42 -11 -53 -7 -20 7 -45 -4 -45 -21 0 -12 93 -3 120 11 12 6
24 9 27 7 13 -13 -65 -39 -113 -38 -36 0 -54 -3 -57 -13 -3 -8 -3 -17 0 -20 9
-9 82 -7 127 3 54 13 31 -5 -26 -20 -36 -10 -58 -10 -87 -3 -32 9 -41 8 -45
-3 -8 -20 41 -36 92 -30 23 2 42 1 42 -4 0 -5 -36 -9 -79 -9 -50 0 -83 -4 -87
-12 -5 -8 0 -9 14 -6 14 4 20 2 15 -5 -4 -7 15 -8 63 -4 68 5 69 5 34 -10 -24
-10 -51 -13 -86 -9 -48 5 -52 4 -63 -20 -11 -25 -10 -26 14 -22 14 3 25 2 25
-2 0 -4 18 -7 39 -6 22 0 38 3 36 6 -2 3 13 6 33 8 21 1 39 7 40 12 2 6 10 10
18 10 8 0 14 5 14 12 0 6 3 8 6 5 7 -6 39 43 50 76 4 9 11 17 18 17 6 0 4 5
-4 10 -10 6 -11 10 -2 10 6 0 12 9 12 20 0 11 5 20 10 20 15 0 8 33 -9 46 -11
9 -12 12 -1 19 9 6 11 4 5 -5 -5 -8 -3 -11 6 -8 10 4 13 18 11 48 -3 29 0 40
7 35 7 -3 11 -3 10 2 -1 4 1 16 6 26 10 23 7 25 -45 32 -35 5 -41 4 -27 -5z"/>
<path d="M17650 2890 c-14 -5 -20 -8 -15 -9 16 -2 38 -88 31 -121 -3 -18 -1
-30 5 -30 6 0 7 -5 4 -10 -4 -6 -1 -17 5 -25 7 -8 10 -21 7 -30 -4 -8 1 -21 9
-30 8 -8 13 -19 9 -24 -3 -6 4 -15 15 -21 11 -6 20 -17 20 -25 0 -7 14 -19 30
-27 17 -7 30 -16 30 -20 0 -5 9 -8 20 -8 11 0 29 -5 39 -12 26 -16 6 -35 -32
-30 -26 4 -29 2 -24 -14 7 -18 7 -18 -8 0 -12 16 -17 17 -30 6 -8 -7 -18 -10
-22 -7 -3 4 -15 1 -27 -5 -11 -7 -27 -13 -35 -14 -8 -2 -17 -6 -20 -11 -7 -9
-29 -16 -51 -16 -32 1 -69 7 -65 11 9 9 -17 42 -27 36 -7 -4 -8 -3 -4 5 4 6 0
14 -8 17 -9 3 -14 10 -11 14 7 11 -64 72 -76 65 -5 -4 -16 -2 -23 4 -19 16
-129 18 -134 3 -2 -7 -15 -12 -28 -12 -13 0 -24 -5 -24 -11 0 -5 -5 -7 -10 -4
-6 3 -13 -1 -16 -9 -3 -9 -10 -13 -15 -10 -5 3 -6 -3 -2 -12 5 -13 3 -16 -10
-11 -9 3 -16 2 -14 -2 1 -5 -10 -20 -25 -34 -16 -14 -28 -23 -28 -20 0 9 -37
-41 -38 -50 0 -5 -8 -14 -17 -21 -15 -11 -14 -14 4 -35 12 -13 21 -21 21 -16
0 4 7 2 15 -5 8 -7 15 -9 15 -4 0 5 5 1 11 -9 6 -9 14 -15 20 -12 5 4 9 1 9
-5 0 -6 5 -8 10 -5 6 3 10 1 10 -5 0 -6 4 -9 9 -5 5 3 16 -1 24 -9 8 -8 17
-12 20 -9 3 3 14 -2 23 -12 9 -9 25 -14 35 -12 11 3 19 2 19 -3 0 -4 17 -6 38
-4 74 7 112 16 106 25 -3 5 0 9 6 9 6 0 21 10 34 23 13 12 33 30 44 39 13 10
19 25 17 38 -2 11 0 18 6 15 5 -4 11 0 14 7 3 8 20 15 38 16 28 2 30 1 14 -11
-10 -7 -17 -19 -15 -27 2 -9 -3 -14 -11 -12 -16 3 -53 -27 -46 -39 3 -4 -3
-12 -12 -18 -10 -6 -14 -11 -9 -11 5 0 1 -9 -9 -20 -10 -11 -15 -20 -10 -20 4
0 2 -6 -4 -14 -7 -8 -14 -40 -17 -71 -5 -47 -3 -56 7 -50 11 6 12 5 2 -6 -14
-15 -18 -53 -4 -45 4 3 6 -5 4 -19 -4 -19 -2 -23 14 -19 15 4 19 13 18 38 -1
19 -4 37 -7 42 -6 13 17 76 25 68 4 -4 7 3 7 15 0 12 7 29 15 38 8 8 13 19 10
24 -4 5 -2 9 3 9 16 0 24 33 10 42 -10 7 -10 8 2 7 31 -3 51 1 46 10 -5 8 12
20 29 21 3 0 14 9 25 20 11 11 26 17 35 14 8 -4 15 -1 15 6 0 6 4 9 9 5 5 -3
13 0 16 6 4 5 13 8 21 5 8 -3 14 -1 14 5 0 7 14 8 40 4 26 -4 40 -3 40 4 0 6
9 11 20 11 11 0 20 -4 20 -9 0 -5 19 -9 43 -9 57 0 77 -4 77 -13 0 -5 7 -5 17
-2 11 4 14 3 9 -5 -5 -8 -2 -10 8 -6 9 3 16 1 16 -6 0 -6 5 -8 10 -5 6 3 10 1
10 -5 0 -6 5 -8 10 -5 6 3 10 1 10 -5 0 -6 5 -8 10 -5 6 3 10 1 10 -5 0 -6 4
-9 9 -6 5 3 14 -1 21 -10 7 -8 20 -12 28 -9 12 4 13 3 2 -10 -10 -12 -10 -15
4 -15 10 0 14 -4 11 -10 -3 -5 -1 -10 5 -10 13 0 100 -86 100 -100 0 -5 5 -10
10 -10 6 0 10 -4 10 -10 0 -5 -18 -10 -40 -10 -22 0 -40 4 -40 9 0 5 -18 32
-41 61 -43 54 -125 114 -146 106 -7 -3 -15 -1 -18 4 -8 13 -102 13 -109 1 -3
-5 -14 -7 -24 -4 -10 2 -24 -2 -31 -11 -7 -8 -19 -12 -27 -9 -7 3 -17 -2 -20
-11 -3 -9 -10 -14 -14 -11 -12 8 -41 -6 -34 -16 3 -5 -2 -6 -10 -3 -11 4 -16
0 -16 -12 0 -9 -3 -14 -7 -11 -3 4 -25 -4 -47 -17 -23 -13 -47 -21 -53 -19 -8
3 -13 -4 -13 -16 0 -12 6 -21 14 -21 8 0 13 -8 12 -17 0 -10 5 -17 12 -15 6 1
11 -2 10 -7 -4 -13 53 -82 63 -75 5 3 9 -1 9 -9 0 -18 48 -59 61 -52 5 4 8 1
7 -7 -2 -7 4 -13 12 -13 8 0 20 -7 27 -15 6 -8 15 -12 18 -8 4 4 13 2 19 -5 8
-8 41 -11 92 -10 108 2 106 2 98 15 -4 7 -3 8 4 4 14 -9 64 23 56 35 -3 5 -2
8 3 7 4 -2 9 1 10 6 0 5 8 13 17 18 9 5 14 13 11 19 -4 5 0 9 7 9 16 0 41 37
33 49 -3 5 16 16 42 25 58 20 63 20 63 0 0 -9 5 -12 12 -8 7 4 8 3 4 -5 -7
-10 17 -45 25 -36 3 2 4 -18 3 -45 0 -27 2 -47 6 -45 4 2 6 -44 4 -103 -1 -59
-3 -120 -3 -135 0 -15 -6 -38 -13 -50 -7 -12 -11 -32 -9 -44 1 -13 -3 -23 -9
-23 -7 0 -9 -7 -6 -16 4 -10 2 -13 -6 -8 -8 5 -9 2 -5 -9 3 -9 2 -19 -3 -22
-6 -4 -10 -13 -10 -21 0 -9 -7 -22 -15 -31 -8 -8 -12 -19 -9 -24 3 -6 -2 -17
-12 -24 -11 -8 -15 -15 -11 -15 5 0 1 -7 -7 -16 -9 -8 -14 -20 -11 -25 4 -5 1
-9 -4 -9 -6 0 -11 -4 -11 -9 0 -15 -62 -111 -71 -111 -5 0 -9 -7 -9 -15 0 -8
-4 -15 -9 -15 -10 0 -27 -39 -23 -53 1 -5 -2 -6 -8 -2 -5 3 -20 -3 -32 -14
-12 -12 -18 -21 -14 -21 4 0 1 -7 -8 -15 -8 -8 -20 -15 -26 -15 -6 0 -9 -3 -7
-7 5 -8 -10 -26 -28 -34 -5 -2 -9 -7 -7 -11 1 -5 -5 -8 -14 -8 -13 0 -14 -3
-5 -14 10 -12 8 -13 -8 -9 -12 3 -21 1 -21 -6 0 -6 5 -11 12 -11 6 0 8 -3 5
-6 -4 -4 -14 -1 -24 7 -11 9 -14 10 -9 2 4 -7 3 -13 -2 -13 -5 0 -22 -11 -38
-25 -16 -14 -35 -25 -42 -25 -7 0 -10 -5 -6 -12 5 -7 0 -9 -14 -6 -13 4 -23 0
-26 -9 -3 -8 -10 -11 -16 -8 -6 3 -13 -1 -16 -10 -4 -8 -14 -14 -23 -13 -9 2
-16 -3 -15 -13 1 -11 -5 -14 -22 -11 -14 2 -24 0 -24 -7 0 -7 -8 -11 -17 -9
-10 2 -17 -2 -16 -7 1 -6 -10 -12 -25 -13 -14 -1 -31 -7 -36 -12 -6 -6 -20
-10 -32 -10 -13 0 -25 -4 -28 -9 -3 -4 -20 -11 -38 -15 -26 -5 -30 -9 -18 -16
21 -13 3 -12 -22 1 -21 11 -20 12 12 40 21 18 30 34 26 44 -3 9 -2 14 3 11 14
-9 45 46 43 77 -1 15 3 27 9 27 6 0 9 10 7 22 -2 14 -10 22 -18 20 -11 -2 -10
1 3 12 17 13 18 33 2 69 -4 9 -4 28 -1 41 3 14 1 28 -4 31 -6 4 -9 9 -6 13 2
4 0 15 -3 26 -7 17 -8 17 -24 2 -9 -10 -17 -14 -17 -10 0 4 -9 -1 -19 -10 -11
-10 -25 -15 -31 -11 -6 4 -22 -1 -36 -10 -13 -9 -30 -13 -36 -9 -6 4 -17 -1
-24 -11 -8 -10 -17 -16 -20 -12 -6 6 -20 -4 -80 -53 -7 -5 -15 -6 -18 -3 -3 4
-6 -1 -6 -10 0 -9 -5 -17 -11 -17 -5 0 -8 -4 -4 -9 3 -5 -2 -16 -11 -25 -19
-20 -24 -188 -6 -194 7 -2 10 -8 6 -13 -8 -13 10 -11 31 4 16 12 16 18 7 47
-21 60 -10 158 13 120 3 -5 1 -10 -5 -10 -7 0 -9 -13 -5 -37 10 -56 27 -95 37
-85 5 5 4 20 -2 36 -5 15 -9 51 -9 79 l1 52 9 -53 c12 -72 26 -97 44 -82 12
10 12 16 0 41 -17 32 -20 125 -5 134 6 4 10 -16 10 -52 0 -37 6 -67 15 -79 18
-23 17 -27 19 73 0 45 6 87 11 92 7 7 10 -13 10 -59 0 -68 17 -102 23 -47 2
15 -1 27 -7 27 -6 0 -5 16 3 44 10 33 11 47 2 56 -8 9 -7 11 4 8 9 -2 14 3 12
12 -3 11 0 12 8 4 8 -8 8 -19 0 -38 -13 -35 -13 -96 0 -96 6 0 10 21 10 48 0
26 3 57 6 69 7 25 33 38 48 23 7 -7 14 -3 22 12 11 21 12 20 19 -12 6 -29 4
-37 -19 -56 -33 -29 -34 -41 -1 -20 30 20 32 20 32 2 0 -8 -5 -14 -11 -13 -6
1 -10 -10 -10 -25 1 -15 -2 -27 -5 -26 -15 2 -72 -16 -77 -24 -11 -18 5 -20
37 -4 41 20 58 21 38 0 -9 -8 -35 -18 -57 -21 -23 -3 -47 -12 -54 -20 -10 -13
-3 -14 56 -10 49 3 64 1 56 -7 -6 -6 -38 -11 -71 -12 -74 -1 -97 -18 -44 -33
20 -5 43 -7 51 -4 8 3 14 0 14 -6 0 -14 -60 -14 -96 -1 -19 7 -31 7 -37 1 -16
-16 -1 -24 51 -27 59 -3 61 -4 38 -13 -11 -4 -42 -4 -69 0 -54 9 -89 0 -47
-12 14 -4 43 -8 65 -9 37 -1 38 -2 15 -11 -28 -11 -79 -9 -97 4 -14 10 -53 0
-53 -14 0 -5 15 -9 33 -10 17 0 41 -4 52 -8 19 -8 19 -8 -4 -20 -12 -7 -29
-10 -36 -7 -14 5 -94 -17 -127 -35 -11 -6 -26 -5 -43 3 -18 8 -36 8 -62 1 -51
-14 -481 -9 -563 7 -41 7 -66 8 -68 2 -2 -7 -15 -7 -38 0 -26 7 -40 6 -52 -4
-15 -11 -15 -11 -4 3 11 14 9 17 -15 21 -16 3 -49 4 -75 4 -25 -1 -44 2 -42 6
5 8 0 9 -63 10 -21 1 -44 7 -51 15 -8 8 -22 11 -33 8 -10 -3 -32 1 -49 10 -17
9 -35 13 -40 10 -5 -3 -22 1 -38 9 -16 8 -32 13 -35 10 -3 -3 -16 0 -29 7 -12
7 -29 12 -35 11 -7 -2 -23 4 -36 13 -13 8 -26 12 -30 9 -3 -3 -12 -2 -19 2 -7
5 -22 10 -32 11 -11 2 -22 6 -25 10 -3 3 4 3 17 0 12 -3 22 -1 22 3 0 4 8 6
19 3 10 -2 25 3 34 12 9 9 21 13 27 10 5 -3 10 1 10 10 0 9 4 14 8 11 12 -7
64 49 55 58 -5 4 -1 6 7 4 8 -2 14 3 12 11 -1 7 5 19 15 27 10 7 14 14 10 14
-5 0 -1 7 7 16 9 8 14 19 11 24 -3 4 2 11 11 14 10 4 13 13 9 26 -4 12 -2 20
5 20 7 0 9 7 6 16 -3 8 -2 12 4 9 6 -4 10 5 10 20 0 23 -3 25 -22 19 -13 -4
-26 -12 -30 -18 -6 -8 -8 -8 -8 0 0 12 -22 24 -55 30 -11 2 -36 7 -56 12 -45
12 -172 7 -177 -7 -2 -5 -10 -7 -18 -4 -7 3 -17 -2 -20 -11 -3 -9 -10 -14 -14
-11 -4 2 -15 -4 -25 -15 -10 -11 -14 -20 -10 -20 5 0 0 -7 -11 -15 -10 -8 -14
-15 -9 -15 6 0 5 -4 -2 -8 -6 -4 -13 -14 -15 -22 -2 -8 -9 -21 -16 -29 -8 -8
-11 -22 -9 -32 3 -10 -1 -24 -9 -30 -21 -17 -112 -18 -126 -2 -6 8 -17 12 -24
9 -7 -3 -16 -1 -19 4 -4 6 -17 10 -31 10 -13 0 -24 5 -24 11 0 5 -4 7 -10 4
-5 -3 -10 -2 -10 3 0 5 -11 8 -25 7 -14 -2 -23 1 -19 6 3 5 -4 9 -14 9 -11 0
-25 7 -32 15 -7 8 -17 12 -22 9 -5 -3 -18 2 -28 11 -14 13 -23 14 -39 6 -17
-10 -20 -9 -15 4 4 9 0 15 -7 16 -28 3 -34 4 -55 16 -12 7 -24 10 -27 7 -3 -3
-16 2 -29 10 -14 9 -27 13 -30 10 -4 -3 -17 2 -30 10 -14 9 -28 13 -31 10 -4
-4 -13 -1 -22 6 -8 7 -28 10 -44 8 -17 -2 -28 -1 -25 3 6 10 -31 31 -39 22 -4
-3 -23 1 -44 9 -21 9 -43 13 -50 11 -6 -2 -25 3 -42 11 -16 9 -37 13 -46 10
-8 -4 -29 -1 -45 6 -17 7 -51 13 -78 15 -26 1 -89 7 -140 14 -52 7 -112 10
-135 7 -23 -3 -59 -5 -80 -5 -21 -1 -36 -4 -34 -8 3 -5 -30 -9 -74 -9 -44 -1
-85 -7 -93 -13 -8 -6 -26 -10 -40 -7 -14 3 -32 -1 -39 -8 -7 -7 -23 -12 -37
-10 -14 1 -38 -4 -53 -12 -15 -7 -34 -11 -41 -8 -8 3 -20 -4 -28 -15 -10 -14
-18 -17 -28 -11 -10 6 -23 4 -38 -6 -12 -8 -26 -12 -31 -10 -5 3 -14 -1 -21
-10 -7 -8 -19 -13 -25 -10 -7 2 -22 -2 -34 -10 -12 -8 -25 -13 -30 -10 -5 3
-14 -1 -21 -9 -6 -7 -18 -11 -26 -8 -7 3 -17 -2 -20 -11 -3 -9 -15 -16 -25
-16 -10 0 -19 -5 -19 -11 0 -6 -7 -8 -15 -5 -9 3 -18 -1 -22 -10 -3 -8 -12
-13 -20 -10 -7 3 -16 -1 -20 -10 -3 -8 -12 -13 -19 -10 -7 3 -18 -3 -23 -12
-6 -9 -11 -13 -11 -8 0 5 -12 -1 -27 -15 -14 -13 -23 -17 -19 -9 4 8 0 6 -8
-4 -9 -11 -16 -16 -16 -11 0 4 -8 1 -18 -8 -10 -10 -22 -14 -25 -11 -4 4 -9
-1 -13 -10 -3 -9 -10 -14 -14 -11 -4 3 -13 -2 -20 -10 -7 -8 -17 -12 -23 -8
-6 3 -7 1 -3 -5 4 -7 2 -13 -3 -13 -6 -1 -17 -2 -23 -3 -7 -1 -12 -8 -10 -15
2 -8 -3 -11 -12 -8 -9 4 -20 -1 -25 -11 -5 -9 -13 -17 -18 -17 -4 0 -7 -3 -6
-7 2 -5 -6 -8 -17 -8 -11 0 -20 -5 -20 -11 0 -5 -5 -7 -10 -4 -6 3 -13 -1 -16
-9 -3 -9 -10 -13 -15 -10 -5 3 -12 -2 -15 -10 -3 -9 -12 -16 -20 -16 -8 0 -14
-4 -14 -10 0 -5 -7 -10 -15 -10 -8 0 -15 -5 -15 -11 0 -5 -5 -7 -10 -4 -6 3
-13 -1 -16 -9 -3 -9 -10 -13 -15 -10 -5 3 -12 -2 -15 -10 -3 -9 -9 -14 -13
-12 -4 3 -24 -11 -46 -29 -21 -19 -42 -32 -47 -29 -4 3 -8 -1 -8 -8 0 -13 -69
-64 -82 -60 -10 3 -10 -12 -1 -21 3 -4 13 2 20 13 8 11 19 18 24 15 5 -4 9 -1
9 4 0 6 7 11 15 11 8 0 15 5 15 11 0 6 6 9 14 6 8 -3 17 1 20 9 3 8 9 14 13
13 19 -3 34 2 29 9 -3 5 11 14 30 21 18 7 34 17 34 22 0 5 3 8 8 8 19 -3 33 2
27 11 -6 10 7 14 34 11 7 -2 10 2 6 8 -6 10 8 16 28 12 5 -1 6 3 2 9 -3 5 -1
10 6 10 8 0 7 5 -2 17 -13 15 -12 15 12 0 25 -16 26 -16 49 8 13 14 30 23 38
20 7 -2 11 -1 8 4 -3 5 1 12 10 15 10 4 13 2 9 -7 -4 -6 -1 -5 7 3 7 8 20 16
28 18 8 2 18 9 22 15 4 7 8 8 8 2 0 -5 6 -3 13 6 16 21 55 41 67 34 5 -3 13 3
19 12 5 10 13 14 17 10 4 -4 16 1 27 10 15 13 19 14 13 3 -5 -9 -2 -8 7 2 8
10 17 15 20 11 4 -3 7 -1 7 6 0 7 5 9 10 6 6 -3 10 -1 10 5 0 7 7 9 16 6 8 -3
12 -2 9 4 -6 10 7 14 33 11 6 -1 12 4 12 10 0 7 3 9 7 6 3 -4 13 -1 22 7 9 8
25 16 36 18 11 1 23 6 26 10 3 5 17 9 32 10 15 1 27 6 27 11 0 4 5 5 10 2 6
-3 10 -1 10 5 0 7 6 10 13 7 8 -3 20 3 27 13 11 15 18 17 33 8 14 -7 18 -7 12
2 -4 7 -2 10 6 9 8 -2 24 2 35 9 12 6 35 13 52 14 17 1 28 6 26 10 -3 4 8 8
25 8 16 0 33 5 37 11 3 6 15 9 25 6 10 -3 22 -1 25 5 3 5 18 7 33 4 20 -5 23
-4 11 4 -12 9 -10 11 12 7 15 -2 29 0 30 5 2 5 31 10 66 11 34 1 62 6 62 10 0
4 26 5 59 1 38 -4 61 -2 65 5 8 13 126 15 126 3 0 -5 36 -8 79 -8 44 1 75 4
69 7 -6 4 -8 14 -5 23 8 19 34 11 42 -13 7 -23 49 -43 72 -34 9 4 14 2 10 -3
-4 -6 6 -9 24 -6 16 2 29 0 29 -6 0 -5 18 -10 41 -10 22 -1 46 -6 53 -11 7 -6
16 -8 19 -4 4 3 7 2 7 -4 0 -6 9 -9 22 -5 14 3 19 1 14 -6 -4 -7 2 -11 16 -10
34 3 99 -13 93 -22 -3 -5 4 -6 15 -3 11 3 20 0 20 -6 0 -6 7 -8 17 -4 11 4 14
3 9 -5 -4 -7 -2 -10 6 -7 8 3 32 -1 55 -9 23 -8 44 -12 47 -9 3 4 6 1 6 -5 0
-7 7 -12 15 -12 8 0 15 -4 15 -9 0 -5 6 -9 13 -8 32 1 48 -4 42 -13 -3 -6 1
-7 9 -4 9 3 16 1 16 -6 0 -6 4 -9 9 -6 13 8 72 -14 65 -25 -3 -5 7 -4 23 2 15
5 25 7 21 4 -11 -11 15 -33 31 -27 9 3 12 1 7 -6 -5 -8 -2 -10 8 -6 9 3 16 1
16 -5 0 -9 6 -9 23 0 21 12 21 11 7 -6 -9 -11 -10 -16 -2 -11 15 9 83 -14 76
-26 -3 -4 2 -5 10 -2 9 3 16 1 16 -5 0 -6 7 -8 15 -5 8 4 15 1 15 -5 0 -6 7
-8 17 -4 10 4 14 2 10 -4 -4 -6 -1 -11 6 -10 34 1 48 -4 41 -15 -5 -8 -2 -9 9
-5 10 4 17 2 17 -4 0 -6 7 -9 15 -5 8 3 15 1 15 -4 0 -5 7 -6 17 -3 10 4 14 2
10 -4 -4 -7 0 -10 10 -9 10 2 23 -4 29 -13 10 -13 14 -13 28 -2 14 11 16 11
16 -2 0 -11 5 -14 17 -10 10 4 14 2 10 -4 -4 -7 9 -10 37 -9 36 1 42 -1 34
-12 -9 -10 -6 -11 16 -2 15 5 25 6 21 1 -3 -5 26 -17 64 -27 38 -10 68 -21 65
-25 -2 -4 5 -5 16 -2 11 3 27 0 35 -7 8 -6 19 -9 25 -5 5 3 10 2 10 -4 0 -6 7
-8 15 -5 8 4 23 3 33 -1 9 -5 25 -7 36 -6 10 2 16 -1 13 -6 -3 -5 7 -8 22 -5
16 2 32 -1 35 -7 4 -6 15 -11 24 -11 9 0 32 -14 51 -31 33 -30 33 -32 19 -58
-21 -36 -23 -205 -2 -222 7 -6 12 -15 9 -19 -2 -4 12 -25 31 -46 20 -22 30
-30 23 -19 -13 20 -13 20 8 1 13 -10 21 -22 18 -26 -7 -11 43 -30 60 -24 8 4
15 1 15 -6 0 -7 7 -10 15 -6 8 3 15 2 15 -2 0 -4 63 -7 141 -6 155 0 174 7
138 52 -10 14 -19 32 -19 42 0 9 -3 20 -7 24 -4 4 -8 23 -9 44 0 20 -6 38 -12
40 -6 2 -9 9 -6 16 14 36 -71 161 -127 188 -30 15 -14 16 224 14 140 0 253 2
251 5 -2 3 18 5 44 4 26 -2 53 2 59 7 7 6 28 7 48 4 19 -4 35 -3 35 2 0 5 11
8 25 7 14 -2 25 1 25 6 0 5 16 9 35 9 21 0 35 5 35 13 0 7 3 8 8 2 9 -13 44
-16 35 -2 -4 6 4 8 21 3 17 -4 25 -3 22 3 -6 9 67 27 92 22 6 -1 12 3 12 9 0
5 12 10 28 10 15 0 35 7 45 15 11 7 25 11 33 8 8 -3 14 0 14 6 0 6 7 11 16 11
8 0 13 4 9 9 -3 5 0 13 6 17 7 4 9 3 5 -4 -3 -6 -2 -13 4 -17 5 -3 10 -1 10 5
0 7 7 9 16 6 10 -4 13 -2 8 6 -5 8 -2 9 10 5 10 -4 15 -3 11 3 -3 6 5 10 19
10 14 0 26 5 26 11 0 5 4 8 8 5 11 -6 26 5 40 29 6 11 12 14 12 8 0 -7 5 -13
11 -13 5 0 8 4 4 9 -5 9 32 27 47 23 4 -1 12 7 18 18 6 11 15 18 19 15 5 -3
12 2 15 11 3 8 11 12 17 8 7 -4 9 -3 5 4 -3 5 0 13 6 15 8 3 6 6 -4 6 -10 1
-18 8 -18 16 0 11 11 15 38 15 24 0 46 7 59 19 12 11 24 17 27 14 3 -4 6 -1 6
6 0 16 26 42 34 34 3 -4 6 0 6 8 0 8 9 21 20 29 11 8 20 19 20 25 0 5 18 30
41 53 22 24 41 52 42 62 1 10 5 16 9 14 4 -3 8 0 8 6 0 6 4 9 9 6 5 -3 8 7 7
23 -1 20 2 27 11 24 7 -3 13 0 13 7 0 6 5 8 10 5 6 -3 10 3 10 13 0 11 7 23
16 26 8 3 13 10 10 15 -7 11 19 63 27 54 4 -3 7 6 7 21 0 15 3 25 8 23 4 -3 8
6 9 20 0 14 7 29 15 34 7 5 9 9 4 9 -5 0 -3 6 3 13 6 8 8 17 4 20 -3 4 -1 7 6
7 7 0 10 4 7 8 -3 5 -1 24 4 43 5 19 9 38 9 43 0 5 5 12 11 16 9 6 9 13 1 28
-8 15 -8 21 0 24 11 4 12 18 10 101 -1 30 -5 37 -21 37 -26 0 -26 22 1 45 17
16 19 26 13 60 -4 22 -7 48 -6 58 0 9 -4 17 -9 17 -6 0 -9 8 -8 18 3 33 -1 44
-15 39 -10 -4 -13 -1 -10 7 3 7 -4 29 -15 49 -11 19 -17 39 -13 43 4 5 0 3 -8
-3 -12 -9 -15 -7 -16 13 -2 30 -22 56 -37 47 -5 -3 -7 -2 -4 4 8 13 -67 86
-77 76 -4 -5 -6 -3 -4 2 2 6 -1 11 -5 12 -5 1 -15 10 -24 20 -8 10 -12 13 -9
6 4 -6 1 -15 -5 -19 -8 -4 -9 -3 -5 4 4 7 2 12 -3 12 -6 0 -10 3 -9 8 2 4 -1
7 -5 7 -5 0 -13 8 -18 18 -6 9 -15 14 -21 11 -6 -4 -14 -1 -18 7 -11 16 -50
20 -43 3 2 -6 0 -15 -6 -18 -13 -8 -51 15 -51 31 0 17 -27 29 -78 36 -49 6
-57 11 -47 27 6 9 9 9 15 0 5 -8 13 -9 21 -4 8 5 22 7 32 6 20 -4 21 2 7 29
-11 19 -50 27 -50 10 0 -10 -101 7 -114 20 -6 5 11 6 41 2 60 -7 104 2 98 20
-4 8 -27 11 -80 9 -50 -2 -75 0 -75 7 0 7 10 9 25 5 38 -9 115 4 109 19 -3 9
-28 13 -77 12 -41 0 -81 5 -92 13 -17 10 -9 11 46 6 41 -4 73 -2 85 4 11 7 13
12 6 12 -7 0 -11 4 -8 9 3 5 -27 11 -67 15 -98 8 -97 8 -97 22 0 10 8 10 41
-1 23 -8 57 -15 76 -15 30 0 34 2 23 15 -7 8 -29 15 -49 15 -20 0 -54 9 -75
20 -27 15 -41 18 -50 11 -9 -8 -13 -7 -13 4 0 8 4 12 9 9 8 -5 12 10 8 35 -1
11 2 12 12 4 7 -6 30 -16 51 -21 33 -9 37 -9 27 4 -7 7 -31 19 -53 25 -27 7
-36 13 -27 19 10 6 8 11 -9 19 -11 7 -21 16 -21 22 0 6 8 5 21 -2 15 -8 19 -8
15 0 -4 6 -2 11 3 11 14 0 51 -37 51 -50 0 -5 5 -10 10 -10 7 0 7 7 0 21 -7
11 -9 24 -5 27 8 9 24 -17 32 -51 3 -15 10 -30 16 -34 7 -4 8 2 3 18 -12 40
-12 52 2 55 7 1 8 0 3 -2 -5 -3 -2 -18 6 -35 8 -16 16 -36 17 -44 1 -8 6 -18
10 -22 5 -4 5 14 2 41 -4 27 -4 46 1 43 5 -3 10 -23 11 -44 4 -58 7 -74 17
-74 10 0 14 16 22 74 10 71 19 37 11 -40 -5 -42 -6 -78 -4 -81 10 -10 26 11
36 49 6 23 14 39 17 36 9 -10 -8 -87 -23 -101 -11 -12 -11 -16 0 -25 14 -11
22 4 50 89 3 9 5 6 5 -7 1 -13 6 -23 11 -23 15 0 12 -66 -5 -106 -9 -22 -11
-42 -6 -57 8 -20 9 -20 15 11 5 19 12 30 18 26 7 -5 9 0 6 14 -4 12 -3 22 0
22 10 0 5 122 -5 129 -11 7 -27 42 -25 53 1 5 -4 7 -10 5 -7 -1 -12 4 -10 11
1 8 -2 11 -7 7 -6 -3 -16 3 -23 15 -7 11 -18 20 -23 20 -6 0 -16 5 -23 12 -6
6 -24 13 -39 15 -47 5 -53 6 -53 12 0 9 -151 9 -180 1z"/>
<path d="M1330 2880 c-8 -5 -24 -7 -35 -3 -16 5 -18 3 -8 -8 9 -11 6 -14 -15
-16 -15 0 -28 -6 -30 -12 -2 -6 -8 -11 -14 -11 -14 0 -30 -19 -53 -62 -11 -21
-22 -38 -25 -38 -3 0 -5 -30 -5 -67 2 -77 30 -150 47 -120 6 11 4 24 -6 39
-18 28 -33 124 -19 115 6 -4 13 -24 17 -44 7 -44 22 -71 32 -60 4 4 0 23 -9
42 -9 20 -17 50 -16 68 l1 32 9 -35 c5 -19 15 -45 21 -58 10 -20 13 -21 21 -6
5 9 6 19 1 23 -11 7 -15 23 -20 76 l-4 40 15 -47 c28 -87 55 -62 31 30 -8 28
-10 52 -6 52 5 0 11 8 13 18 3 9 5 1 6 -19 2 -53 27 -59 35 -9 9 58 27 61 19
3 -3 -26 -2 -44 3 -40 4 4 9 15 10 24 4 27 26 73 35 73 4 0 1 -17 -7 -37 -11
-27 -12 -34 -3 -26 7 7 18 27 23 45 6 17 17 33 24 36 11 3 12 0 2 -18 -6 -12
-9 -24 -6 -27 3 -3 9 3 13 13 4 10 14 24 22 31 13 10 5 12 -44 13 -33 0 -67
-5 -75 -10z"/>
<path d="M1835 2573 c-11 -2 -27 -7 -35 -10 -8 -3 -20 -7 -25 -7 -12 -1 -65
-41 -65 -49 0 -3 -11 -18 -25 -33 -13 -14 -22 -31 -18 -37 3 -6 1 -7 -5 -3 -7
4 -12 0 -12 -10 0 -10 -3 -15 -6 -12 -3 3 -17 3 -32 -2 -19 -5 -38 -1 -63 11
-20 10 -40 15 -44 11 -3 -4 -11 1 -16 10 -5 10 -16 15 -24 11 -9 -3 -22 0 -30
7 -11 9 -76 19 -140 20 -21 1 -101 -16 -113 -24 -7 -4 -9 -12 -6 -18 4 -7 2
-8 -4 -4 -6 3 -16 -3 -22 -14 -14 -26 -44 -27 -38 -2 4 15 1 18 -21 14 -14 -3
-30 -11 -34 -19 -5 -7 -12 -11 -18 -8 -5 4 -9 -1 -9 -11 0 -14 -2 -15 -17 -3
-13 11 -15 11 -9 1 5 -9 1 -15 -13 -19 -12 -3 -21 -10 -21 -15 0 -5 -4 -7 -9
-4 -10 7 -123 -109 -114 -118 3 -3 1 -6 -6 -6 -7 0 -9 -4 -6 -10 3 -5 -1 -10
-9 -10 -9 0 -16 -7 -16 -16 0 -9 5 -12 13 -8 7 4 8 3 4 -2 -5 -5 -16 -9 -25
-9 -9 0 -16 -6 -15 -12 2 -7 -1 -13 -5 -13 -5 0 -9 -7 -10 -15 -1 -8 -3 -21
-4 -29 -1 -8 -6 -14 -12 -13 -6 1 -10 -8 -8 -20 2 -12 -2 -24 -8 -28 -5 -3
-10 -17 -10 -31 0 -14 -5 -35 -11 -46 -9 -16 -7 -26 10 -49 12 -15 21 -35 21
-44 0 -18 -26 -20 -33 -2 -2 6 -8 -10 -12 -38 -5 -32 -4 -50 2 -52 6 -2 9 -13
6 -24 -3 -11 0 -31 7 -44 7 -13 10 -31 6 -40 -3 -9 1 -30 10 -47 8 -16 13 -32
10 -35 -12 -12 15 -42 32 -36 16 7 16 6 0 -10 -17 -18 -15 -47 4 -47 6 0 8 -6
5 -14 -3 -8 1 -20 9 -27 8 -7 13 -18 10 -26 -3 -8 1 -16 10 -20 8 -3 13 -11
10 -18 -4 -12 33 -52 45 -48 3 1 4 -9 2 -22 -4 -17 1 -25 17 -30 18 -6 20 -9
9 -16 -11 -7 -11 -9 -1 -9 7 0 11 -4 8 -9 -3 -5 1 -12 10 -15 8 -3 12 -11 8
-17 -4 -8 -3 -9 4 -5 7 4 12 3 12 -2 0 -6 16 -27 35 -48 19 -22 35 -43 35 -48
0 -5 9 -17 21 -27 11 -9 20 -21 19 -26 -1 -4 6 -12 16 -18 28 -16 44 -32 37
-39 -4 -3 1 -6 10 -6 10 0 17 -4 17 -10 0 -5 7 -10 16 -10 8 0 13 -4 10 -9 -3
-5 1 -12 10 -15 21 -8 26 -8 20 2 -3 5 8 6 25 4 30 -4 42 -32 13 -32 -8 0 -12
-5 -9 -11 4 -6 14 -8 22 -5 8 3 12 2 8 -3 -5 -10 64 -58 78 -53 4 1 7 -2 7 -8
0 -15 79 -52 93 -43 7 4 6 0 -2 -11 -8 -9 -10 -16 -5 -15 25 4 45 -2 38 -13
-4 -6 -3 -8 3 -5 16 10 74 -13 66 -26 -3 -6 -1 -7 5 -3 7 4 44 -5 84 -19 40
-15 78 -28 83 -29 108 -24 132 -31 143 -40 10 -7 16 -6 23 5 7 12 9 11 9 -3 0
-14 5 -15 30 -8 23 7 30 5 30 -6 0 -17 1 -17 34 -4 19 7 26 6 26 -3 0 -12 38
-17 143 -18 26 0 45 -3 43 -7 -2 -4 106 -6 240 -5 164 1 246 -2 250 -9 4 -6 2
-8 -4 -4 -12 7 -112 -84 -112 -103 0 -22 -2 -26 -17 -43 -8 -9 -12 -22 -8 -27
3 -6 -1 -18 -10 -27 -9 -9 -15 -26 -13 -38 1 -11 -4 -36 -11 -54 -8 -18 -11
-36 -7 -39 3 -4 -4 -17 -16 -31 -21 -21 -22 -25 -7 -36 24 -17 308 -14 319 4
4 7 13 9 19 6 6 -4 14 0 17 9 4 8 14 14 23 13 9 -2 15 3 13 10 -1 8 1 11 6 8
12 -7 65 50 86 92 10 19 14 42 10 54 -4 13 -1 24 7 29 11 7 12 11 1 17 -8 6
-11 20 -8 38 3 15 1 45 -6 65 -8 29 -8 44 3 68 8 17 18 31 22 31 5 0 6 4 3 8
-3 5 8 6 25 4 19 -3 29 0 29 8 0 8 9 11 25 8 14 -3 28 -2 30 2 2 4 16 5 30 2
16 -3 25 0 25 8 0 8 9 10 25 6 15 -4 25 -2 25 4 0 6 5 8 10 5 6 -3 10 -2 10 2
0 5 8 9 18 10 9 1 31 5 47 8 17 4 40 8 52 9 11 0 19 5 16 10 -3 4 4 5 16 1 13
-4 21 -2 21 5 0 6 6 10 13 7 6 -2 18 3 25 12 10 12 12 13 6 1 -7 -13 -5 -13 9
-2 9 8 22 10 28 6 9 -5 10 -2 5 11 -6 16 -4 16 10 4 13 -11 18 -11 21 -1 3 6
17 12 33 12 16 0 30 5 32 10 2 6 14 12 28 12 14 1 28 6 31 11 3 4 16 9 27 10
12 1 22 7 22 14 0 7 -7 10 -17 7 -15 -5 -15 -4 -3 5 11 7 19 6 32 -6 20 -18
25 -4 6 17 -11 12 -10 12 2 2 18 -12 60 -12 60 1 0 4 5 5 10 2 6 -3 18 1 27
10 9 9 24 14 35 12 10 -3 16 -1 12 4 -4 8 17 14 39 10 4 0 7 4 7 10 0 6 7 9
15 5 8 -3 15 -1 15 4 0 5 8 7 18 3 9 -3 14 -2 9 2 -9 10 51 37 64 29 5 -3 9
-1 9 5 0 6 7 8 15 5 8 -4 15 -1 15 5 0 6 3 10 8 9 10 -2 62 24 62 32 0 4 14 6
31 5 17 -1 37 4 44 12 8 7 25 14 39 15 14 1 23 5 20 7 -5 5 102 40 136 45 8 1
24 7 36 14 11 6 32 12 47 14 14 2 30 8 34 13 5 4 2 5 -6 0 -9 -5 -12 -4 -8 3
4 5 16 8 27 5 12 -3 44 2 73 11 29 9 71 18 92 21 22 2 42 5 45 6 9 4 25 7 44
8 11 1 16 6 13 15 -4 10 -1 13 7 10 7 -3 16 2 19 10 3 8 14 19 25 25 15 8 19
6 19 -7 0 -9 -3 -21 -8 -27 -5 -7 19 -9 69 -7 112 4 180 4 237 -1 33 -3 58 1
73 10 22 14 23 13 13 -6 -10 -18 -8 -20 37 -19 48 1 111 -7 147 -19 11 -4 23
-8 28 -9 4 -1 10 -3 15 -4 4 -1 14 -2 24 -1 9 1 19 -3 23 -9 5 -8 11 -7 23 2
9 7 13 8 10 3 -4 -7 25 -20 72 -34 44 -13 77 -28 74 -33 -3 -5 0 -9 7 -7 28 3
50 -1 45 -10 -3 -5 4 -9 17 -10 68 -3 76 -6 64 -20 -9 -12 -9 -13 1 -7 6 4 18
4 25 -1 6 -4 14 -8 17 -8 20 -2 100 -40 100 -47 0 -5 4 -7 9 -3 13 7 62 -16
55 -26 -3 -5 3 -6 12 -2 13 5 15 3 9 -7 -6 -10 -4 -12 8 -7 9 3 23 0 31 -8 7
-8 16 -11 20 -8 3 4 6 1 6 -6 0 -7 4 -10 9 -6 5 3 15 0 23 -7 7 -7 18 -14 23
-15 6 -1 19 -5 30 -9 18 -7 19 -6 5 12 -14 17 -14 18 2 6 9 -8 15 -19 12 -26
-2 -6 4 -12 16 -13 12 -1 18 2 14 9 -4 7 -2 8 5 4 9 -6 9 -11 0 -22 -10 -12
-9 -13 6 -8 14 6 16 4 10 -6 -6 -10 -4 -12 7 -7 9 3 24 -1 35 -9 10 -9 12 -12
4 -8 -10 5 -12 3 -7 -5 5 -7 14 -10 22 -7 8 3 14 1 14 -4 0 -6 9 -10 20 -10
10 0 24 -9 30 -21 7 -12 18 -18 26 -15 7 3 23 -4 34 -16 11 -12 20 -18 20 -12
0 5 5 1 11 -8 5 -9 16 -15 24 -12 8 4 18 -1 21 -10 3 -9 10 -13 15 -10 5 3 9
0 9 -6 0 -6 4 -9 9 -6 5 3 14 -1 21 -9 7 -8 19 -15 27 -15 7 0 16 -7 19 -15 4
-8 9 -13 13 -11 9 6 82 -39 76 -47 -3 -4 -2 -5 1 -2 4 2 18 -5 32 -15 35 -28
42 -15 9 16 -15 13 -28 23 -29 22 -6 -6 -78 42 -78 52 0 6 -4 8 -10 5 -5 -3
-10 -1 -10 4 0 6 -4 11 -10 11 -11 0 -44 25 -68 52 -9 9 -19 15 -24 12 -4 -3
-8 0 -8 5 0 6 -6 11 -14 11 -8 0 -17 7 -20 16 -3 8 -10 13 -15 10 -5 -3 -12 1
-15 10 -4 9 -9 14 -12 11 -4 -3 -18 5 -32 18 -13 13 -31 21 -39 18 -8 -3 -13
-2 -11 3 2 5 -1 10 -5 11 -5 1 -15 10 -23 20 -7 10 -14 14 -14 9 0 -6 -7 -1
-16 10 -8 10 -13 13 -9 7 4 -8 1 -11 -9 -7 -9 3 -15 9 -14 12 2 19 -4 22 -21
12 -13 -7 -22 -7 -26 0 -3 5 -1 10 5 10 6 0 8 5 5 11 -4 6 -9 8 -13 5 -3 -3
-11 2 -19 12 -10 11 -12 12 -8 2 4 -8 -1 -6 -10 5 -9 11 -22 19 -29 17 -8 -1
-16 4 -19 12 -4 9 -15 13 -27 11 -11 -2 -18 0 -15 6 4 5 1 9 -6 9 -6 0 -18 8
-26 18 -9 10 -12 11 -7 2 4 -8 -5 -4 -19 9 -15 14 -27 21 -27 16 0 -4 -9 0
-20 10 -11 10 -20 14 -20 10 0 -4 -9 0 -20 10 -11 10 -20 14 -20 9 0 -5 -4 -4
-8 3 -4 6 -14 13 -22 15 -8 2 -20 8 -28 15 -7 7 -19 10 -27 7 -8 -4 -15 -1
-15 5 0 6 -11 11 -25 11 -14 0 -25 5 -25 10 0 6 -11 10 -24 10 -13 0 -28 6
-34 13 -6 7 -25 12 -41 11 -18 -1 -29 3 -28 10 1 6 -7 10 -17 9 -11 -1 -29 5
-39 12 -11 7 -26 11 -33 8 -8 -3 -21 1 -30 8 -9 7 -29 12 -44 11 -16 -1 -31 2
-35 8 -3 5 -22 10 -41 10 -20 0 -44 5 -55 10 -10 6 -43 12 -72 14 -28 2 -95 9
-147 16 -78 10 -114 10 -190 0 -52 -7 -114 -14 -137 -15 -24 -1 -63 -8 -88
-15 -25 -7 -48 -10 -52 -7 -3 4 -21 0 -40 -8 -20 -8 -48 -15 -64 -15 -15 0
-31 -4 -34 -10 -3 -5 -19 -10 -35 -10 -16 0 -32 -4 -35 -10 -3 -5 -19 -10 -34
-10 -15 0 -31 -3 -35 -7 -4 -5 -18 -8 -29 -8 -14 0 -22 -6 -21 -16 1 -11 -5
-14 -23 -11 -13 3 -35 -1 -49 -8 -13 -8 -27 -10 -31 -7 -3 4 -15 0 -25 -10
-10 -9 -21 -13 -24 -10 -9 8 -64 -24 -64 -38 0 -5 -5 -3 -11 5 -8 11 -12 12
-16 3 -2 -7 -16 -13 -29 -13 -13 0 -24 -5 -24 -10 0 -6 -6 -10 -12 -9 -25 3
-39 -1 -33 -10 3 -6 -5 -8 -19 -5 -13 2 -29 -2 -36 -11 -7 -8 -21 -15 -31 -15
-10 0 -21 -5 -24 -11 -4 -6 -13 -8 -21 -5 -7 3 -19 0 -26 -7 -13 -13 -78 -15
-113 -4 -13 4 -21 16 -22 34 0 15 -6 29 -12 31 -6 2 -9 8 -5 13 3 5 0 9 -6 9
-6 0 -8 5 -5 10 3 6 1 10 -5 10 -7 0 -10 6 -7 14 6 15 -76 99 -87 89 -3 -3
-12 0 -21 7 -19 16 -127 20 -180 7 -54 -14 -83 -18 -127 -20 -36 -1 -38 -3
-38 -34 0 -20 6 -36 14 -39 9 -3 12 -12 9 -21 -4 -11 -2 -14 5 -9 8 5 10 2 6
-8 -3 -9 -1 -16 6 -16 6 0 9 -4 5 -9 -3 -6 5 -20 17 -32 13 -12 17 -18 10 -14
-11 6 -12 3 -3 -14 7 -11 18 -21 25 -21 8 0 17 -7 20 -16 4 -10 2 -13 -7 -8
-7 5 -6 1 2 -10 8 -10 23 -15 33 -12 17 4 17 2 6 -12 -9 -11 -9 -14 -1 -9 7 5
22 -2 34 -14 12 -12 35 -22 51 -23 18 -1 34 -9 41 -21 9 -18 9 -18 -5 -7 -12
9 -18 10 -23 2 -4 -6 -13 -9 -20 -6 -7 2 -22 -2 -34 -11 -12 -8 -28 -12 -35
-10 -8 3 -22 -1 -33 -8 -10 -7 -26 -13 -34 -13 -33 2 -50 -3 -44 -12 4 -6 -10
-10 -34 -10 -22 0 -43 -5 -47 -11 -3 -6 -17 -8 -30 -5 -14 4 -37 0 -55 -10
-19 -9 -41 -13 -56 -9 -14 3 -22 2 -20 -2 5 -8 -7 -11 -88 -16 -27 -2 -67 -9
-88 -16 -20 -7 -50 -10 -65 -6 -15 3 -59 -1 -97 -8 -75 -15 -476 -16 -548 -2
-26 5 -47 3 -63 -6 -21 -11 -27 -11 -34 0 -4 8 -15 11 -23 8 -9 -3 -17 -1 -19
5 -2 5 -18 11 -36 13 -18 1 -35 5 -38 8 -3 3 -12 3 -19 1 -7 -3 -26 1 -41 9
l-29 15 58 7 c36 5 56 12 54 19 -5 12 -68 10 -77 -3 -3 -4 -23 -2 -45 4 l-40
13 42 1 c45 1 73 9 73 21 0 4 -33 6 -72 4 -69 -3 -67 -1 10 12 28 4 30 7 19
19 -14 13 -61 10 -53 -4 2 -3 -19 -6 -47 -6 -32 1 -52 5 -53 13 -1 7 0 8 3 2
2 -5 9 -10 14 -10 6 0 7 5 3 12 -5 8 0 9 15 5 12 -3 37 -1 57 5 50 13 29 38
-26 31 -21 -3 -52 -1 -69 5 -22 8 -32 7 -39 -1 -11 -13 11 -41 22 -29 4 3 4
-1 1 -9 -6 -17 44 -79 65 -79 6 0 9 -4 6 -8 -3 -5 9 -9 26 -10 17 0 36 -6 42
-12 8 -9 5 -11 -14 -9 -14 2 -32 -1 -40 -5 -8 -5 -11 -5 -7 -1 9 11 -58 45
-89 45 -13 0 -26 5 -29 10 -3 6 -14 10 -24 10 -10 0 -24 7 -31 15 -7 9 -19 14
-26 11 -7 -3 -16 -1 -19 4 -4 6 -15 10 -26 10 -10 0 -19 5 -19 11 0 7 -10 9
-24 7 -17 -4 -23 -1 -19 9 3 8 -2 13 -16 13 -12 0 -21 5 -21 10 0 6 -9 10 -21
10 -13 0 -18 -4 -13 -13 4 -7 3 -9 -2 -4 -9 8 -10 12 -13 39 0 6 -4 8 -8 5 -3
-4 -12 1 -20 11 -10 11 -12 12 -8 2 4 -8 -3 -4 -14 9 -12 13 -21 20 -21 15 0
-4 -7 1 -15 12 -8 10 -15 15 -15 10 0 -5 -9 3 -21 18 -11 14 -25 24 -30 21 -5
-4 -9 2 -9 11 0 10 -3 15 -6 11 -7 -7 -74 58 -74 73 0 6 -4 8 -10 5 -5 -3 -10
1 -10 10 0 9 -4 14 -9 11 -5 -3 -12 1 -15 10 -3 9 -11 12 -18 8 -8 -5 -7 0 2
11 8 10 10 16 4 12 -14 -8 -37 16 -26 28 4 5 -1 5 -11 2 -10 -4 -16 -3 -12 3
3 5 -2 18 -12 29 -9 11 -18 27 -19 36 -4 24 -26 47 -40 41 -7 -3 -16 0 -20 6
-4 7 -3 8 4 4 17 -10 15 13 -3 31 -8 8 -13 19 -10 24 4 5 1 9 -6 9 -7 0 -9 3
-6 7 4 3 0 15 -10 25 -9 10 -13 18 -8 18 4 0 2 7 -5 15 -7 8 -17 12 -22 9 -6
-4 -6 2 1 14 8 15 6 24 -9 42 -13 15 -18 31 -14 43 4 14 3 17 -7 12 -9 -6 -11
-4 -6 8 3 9 1 19 -4 23 -6 3 -9 15 -6 25 3 12 1 17 -5 13 -7 -5 -9 2 -6 20 3
14 2 26 -1 26 -4 0 -6 16 -5 35 1 19 -3 35 -8 35 -7 0 -8 28 -4 78 3 42 7 87
7 99 1 13 4 21 9 18 4 -2 5 7 2 20 -2 14 0 25 7 25 5 0 8 6 5 13 -2 7 4 24 15
36 12 13 19 27 16 31 -2 4 13 4 34 0 39 -7 85 -33 76 -42 -3 -3 6 -17 20 -32
13 -14 26 -30 27 -34 2 -4 7 -6 11 -4 5 1 6 -2 3 -7 -9 -13 54 -63 71 -57 8 3
11 1 8 -4 -7 -12 -10 -12 94 -14 46 -1 89 3 95 9 6 5 18 11 26 13 8 2 18 9 22
15 4 7 8 8 8 4 0 -21 160 128 160 149 0 8 4 14 10 14 9 0 40 51 40 66 0 3 -6
4 -14 1 -7 -3 -24 1 -35 10 -12 8 -25 13 -27 10 -3 -3 -17 6 -31 19 -14 13
-32 24 -39 24 -8 0 -14 5 -14 10 0 6 -7 10 -15 10 -8 0 -31 9 -51 21 -20 11
-43 18 -52 14 -8 -3 -21 0 -28 6 -8 7 -32 9 -61 5 -27 -3 -56 -6 -66 -6 -10
-1 -21 -8 -24 -16 -3 -7 -9 -12 -13 -9 -12 7 -96 -71 -125 -118 -24 -37 -32
-43 -56 -39 -32 5 -35 12 -17 30 7 7 8 12 3 12 -4 0 5 11 21 25 22 19 24 24 9
19 -11 -3 -5 4 13 15 21 14 32 27 28 36 -3 8 0 17 6 21 7 4 8 3 4 -4 -10 -17
10 -15 28 3 8 8 18 15 22 15 4 0 12 7 18 16 6 8 20 17 31 18 11 2 19 9 17 15
-1 6 9 11 22 11 14 0 28 5 31 11 4 6 12 8 19 6 6 -3 21 2 31 9 14 10 33 13 64
8 31 -5 42 -4 37 5 -4 6 -1 11 8 11 8 0 18 -5 21 -10 4 -6 23 -7 47 -4 29 5
43 3 49 -7 8 -12 11 -12 19 1 8 13 10 12 10 -3 0 -11 5 -15 11 -11 6 3 15 1
19 -5 6 -11 24 -18 53 -20 5 -1 6 -5 3 -10 -3 -5 2 -8 12 -7 9 0 16 -5 14 -12
-1 -8 2 -11 8 -7 5 3 13 -1 16 -9 3 -9 10 -14 14 -11 4 3 11 -2 14 -11 3 -8
10 -13 15 -10 5 4 8 -2 7 -11 -2 -10 4 -24 13 -31 13 -11 13 -12 1 -7 -12 5
-12 4 1 -7 22 -18 38 -70 31 -103 -3 -21 -2 -26 8 -20 9 6 10 3 2 -12 -13 -24
-5 -60 14 -67 15 -6 17 -3 30 49 12 51 12 55 3 61 -5 3 -9 15 -9 28 0 12 -6
28 -12 35 -10 11 -10 13 0 7 14 -9 17 10 2 19 -6 4 -8 11 -5 16 4 5 -2 9 -12
9 -15 0 -16 2 -3 10 11 7 11 10 2 10 -7 0 -11 4 -8 8 3 5 -6 20 -19 34 -13 14
-22 28 -19 30 2 3 -9 16 -25 31 -16 14 -32 23 -35 20 -3 -4 -6 -1 -6 5 0 7 14
12 31 12 16 0 28 -4 24 -9 -3 -6 2 -14 11 -19 9 -5 17 -13 17 -18 1 -5 8 -8
14 -8 9 1 10 -3 4 -14 -12 -21 38 -65 57 -49 7 6 12 6 10 1 -2 -5 0 -9 3 -9 3
0 13 -8 23 -17 10 -10 24 -18 32 -18 8 0 14 -4 14 -10 0 -5 18 -9 39 -7 21 1
37 5 35 9 -3 4 12 7 31 6 21 -1 40 4 45 12 4 7 13 9 19 6 6 -4 14 0 17 9 4 9
13 14 21 11 7 -3 16 1 19 9 4 8 11 15 17 15 6 0 19 8 30 18 11 9 17 11 13 4
-4 -6 9 -2 29 9 25 15 33 24 24 30 -7 4 -14 16 -15 26 -2 10 -23 37 -48 60
-25 23 -46 45 -46 50 0 10 -57 49 -66 45 -3 -2 -11 4 -18 14 -10 13 -17 14
-34 5 -18 -10 -21 -9 -16 4 4 9 0 15 -7 16 -8 0 -25 2 -39 4 -14 1 -34 1 -45
-2z"/>
<path d="M1237 1745 c-7 -6 -23 -10 -35 -8 -13 2 -25 -3 -28 -12 -4 -8 -10
-12 -15 -9 -5 3 -9 1 -9 -3 0 -5 -16 -25 -36 -46 -20 -20 -33 -37 -29 -37 4 0
1 -7 -6 -16 -8 -9 -14 -31 -15 -48 -1 -17 -7 -56 -14 -86 -6 -30 -9 -67 -6
-84 3 -16 1 -35 -5 -43 -7 -7 -9 -16 -5 -20 3 -3 6 -1 6 6 0 7 5 9 10 6 6 -4
8 -9 6 -13 -2 -4 6 -7 19 -7 13 0 21 3 18 8 -4 6 35 10 105 11 12 0 22 3 22 7
0 7 56 23 77 22 7 0 10 3 7 8 -3 5 1 9 9 9 8 0 20 7 27 15 7 8 16 12 21 9 5
-3 8 -2 7 3 -4 12 28 54 35 46 6 -6 11 11 8 30 0 4 4 7 10 7 6 0 9 7 5 15 -3
8 -2 15 2 15 4 0 7 22 7 49 0 27 -3 47 -7 45 -4 -3 -10 11 -14 31 -3 19 -10
35 -16 35 -5 0 -7 4 -4 8 2 4 1 14 -4 21 -6 10 -9 9 -14 -7 -4 -13 -1 -31 9
-45 21 -33 34 -82 26 -96 -5 -7 -12 4 -19 26 -14 46 -41 87 -42 63 0 -9 9 -33
20 -55 22 -43 26 -85 9 -85 -5 0 -7 5 -4 10 4 6 -4 31 -16 57 -19 39 -24 43
-30 27 -4 -11 -1 -26 8 -36 8 -9 17 -36 19 -60 2 -24 1 -36 -2 -28 -20 52 -36
80 -44 80 -13 0 -12 -25 4 -85 7 -27 11 -58 8 -69 -4 -14 -9 -1 -17 37 -6 31
-14 59 -17 63 -13 13 -28 -8 -22 -32 8 -30 -4 -96 -16 -89 -5 3 -4 19 2 36 7
22 7 34 0 41 -13 13 -20 0 -24 -51 -2 -19 -9 -37 -17 -39 -10 -4 -12 0 -6 14
15 38 18 57 8 51 -6 -4 -14 -22 -17 -41 -4 -19 -13 -39 -21 -46 -18 -15 -19
-6 -4 22 6 11 8 22 6 25 -3 3 -13 -9 -22 -27 -12 -22 -22 -31 -34 -27 -10 2
-26 0 -35 -5 -24 -13 -20 5 5 20 20 13 20 14 2 28 -10 9 -13 13 -7 10 6 -3 19
1 30 8 10 8 23 12 29 9 7 -2 18 3 25 12 10 12 10 15 -4 15 -9 0 -16 -4 -16 -8
0 -5 -6 -9 -12 -10 -7 0 -24 -4 -38 -7 -24 -7 -23 -6 4 13 17 12 47 24 68 27
46 8 60 25 21 25 -16 0 -45 -11 -65 -25 -32 -22 -37 -23 -43 -8 -3 10 -3 14 0
11 4 -4 27 4 52 18 25 13 58 24 73 24 15 0 34 7 41 17 13 15 10 16 -34 10 -26
-4 -61 -14 -77 -22 -17 -9 -30 -12 -30 -7 0 14 72 41 120 45 33 3 46 9 48 21
3 16 -2 17 -45 13 -26 -2 -60 -7 -75 -11 -40 -9 -35 2 9 20 21 9 57 14 87 12
43 -3 51 0 54 16 4 18 -1 19 -72 13 -42 -3 -78 -1 -81 4 -4 5 2 6 11 2 10 -4
15 -2 12 3 -4 5 25 10 70 10 48 0 77 5 80 12 6 18 -108 19 -118 2 -3 -5 -12
-5 -20 0 -11 7 -8 11 15 19 17 6 38 16 47 21 22 13 38 13 18 0 -10 -6 -2 -9
28 -8 32 0 45 5 53 20 6 11 9 21 7 23 -12 10 -111 10 -121 0z"/>
<path d="M17882 1752 c-34 -3 -42 -7 -38 -18 3 -9 6 -19 6 -24 0 -4 27 -8 60
-9 55 0 109 -16 97 -27 -2 -3 -22 -1 -44 4 -48 11 -103 4 -97 -12 2 -6 29 -11
67 -11 34 -1 71 -6 81 -12 15 -8 2 -9 -53 -5 -67 4 -73 3 -70 -13 3 -16 15
-18 81 -19 42 0 75 -3 72 -5 -2 -2 4 -10 14 -18 15 -13 15 -14 -8 -8 -14 4
-52 9 -84 12 -53 5 -58 4 -53 -12 4 -9 7 -19 7 -21 0 -10 20 -3 36 14 17 16
18 16 11 0 -5 -15 -1 -18 24 -18 34 0 99 -27 99 -41 0 -5 -14 -2 -31 7 -39 20
-122 28 -116 11 2 -7 25 -15 51 -19 45 -6 116 -44 116 -61 0 -5 -6 -5 -12 -1
-9 5 -9 2 1 -9 16 -21 5 -21 -29 -2 -14 8 -31 14 -38 15 -22 0 -3 -19 34 -35
19 -8 34 -18 33 -22 -3 -21 2 -24 19 -12 15 13 16 12 3 -3 -9 -12 -10 -18 -2
-18 6 0 11 -4 11 -10 0 -5 -7 -10 -15 -10 -8 0 -15 3 -15 8 0 4 -10 13 -22 21
-21 13 -22 13 -9 -2 11 -15 11 -17 -2 -17 -8 0 -20 14 -27 30 -16 38 -22 34
-14 -8 6 -27 11 -32 36 -32 16 0 39 -5 50 -11 15 -8 22 -8 28 1 4 7 13 9 19 6
6 -4 11 -3 11 3 0 5 -5 13 -10 16 -6 4 -8 11 -5 16 4 5 1 9 -4 9 -7 0 -9 19
-6 55 3 31 1 64 -5 75 -6 11 -11 38 -13 60 -1 22 -6 40 -10 40 -5 0 -5 5 -2
10 3 6 1 10 -5 10 -6 0 -8 5 -5 10 3 6 2 10 -4 10 -5 0 -19 16 -31 35 -12 19
-24 34 -28 33 -4 -1 -15 2 -25 7 -9 4 -26 5 -36 2 -14 -3 -18 -1 -14 9 3 8 1
14 -3 15 -5 0 -16 1 -24 2 -8 1 -35 1 -58 -1z"/>
<path d="M17799 1699 c-7 -19 -13 -37 -11 -41 1 -5 -2 -8 -8 -8 -13 0 -13
-147 0 -155 6 -4 7 -12 4 -18 -4 -7 -4 -9 1 -5 8 8 52 -42 48 -54 -2 -5 0 -7
5 -6 13 5 52 -29 44 -38 -4 -4 1 -2 11 5 11 9 17 10 17 2 0 -6 7 -11 16 -11 8
0 13 -3 11 -7 -3 -5 15 -9 40 -11 40 -2 44 0 38 15 -4 10 -10 28 -12 41 -6 24
-23 41 -23 22 0 -6 5 -20 10 -31 8 -13 7 -19 0 -19 -14 0 -34 49 -31 78 1 12
-3 22 -9 22 -9 0 -10 -13 -5 -46 4 -32 3 -44 -4 -39 -6 3 -11 28 -11 55 0 72
-10 90 -26 50 -8 -18 -14 -45 -14 -61 0 -15 -4 -30 -8 -33 -12 -7 -4 81 10
117 15 39 -4 57 -26 26 -9 -13 -16 -31 -16 -41 0 -9 -5 -20 -11 -24 -8 -4 -9
4 -4 27 4 19 8 38 9 44 0 5 9 16 20 25 17 15 17 16 0 30 -16 13 -17 13 -11 -2
4 -11 2 -17 -5 -15 -6 1 -17 -16 -24 -38 l-12 -40 -1 35 c-1 19 8 48 19 65 25
38 26 53 0 30 -11 -10 -22 -33 -26 -51 -3 -19 -11 -34 -16 -34 -5 0 -7 8 -5
18 3 9 8 31 12 47 4 17 13 37 21 46 10 11 12 23 6 39 -8 22 -9 22 -23 -11z"/>
<path d="M1657 1203 c-11 -11 -8 -73 4 -73 6 0 8 9 4 20 -5 14 -2 20 10 20 9
0 13 -4 10 -10 -3 -5 -1 -18 4 -27 8 -13 10 -14 11 -4 0 11 4 9 14 -4 8 -11
12 -23 9 -28 -8 -13 7 -58 17 -52 6 4 8 11 4 16 -3 5 -7 25 -9 43 -2 28 0 33
16 29 24 -7 41 -60 38 -122 -3 -59 15 -91 25 -44 3 15 4 52 2 82 -3 36 -1 49
5 40 5 -8 8 -50 7 -94 -2 -65 0 -80 12 -80 8 0 14 8 14 18 -1 9 3 17 8 17 6 0
8 25 6 58 -3 52 -1 58 17 59 11 1 15 -1 8 -4 -8 -3 -11 -18 -7 -46 4 -25 0
-59 -9 -84 -12 -34 -12 -45 -2 -53 15 -13 22 0 41 80 l13 55 -2 -60 c-1 -33
-7 -70 -15 -81 -11 -18 -10 -22 2 -27 19 -7 36 41 36 101 0 28 4 42 9 37 10
-11 20 -95 11 -95 -3 0 -11 -13 -17 -29 -9 -25 -8 -32 7 -46 17 -16 55 -11 44
6 -3 5 -11 7 -17 3 -7 -3 -2 3 9 13 17 16 22 30 21 74 0 36 -6 58 -16 67 -9 8
-10 11 -3 7 7 -4 12 0 12 9 0 9 -4 16 -10 16 -5 0 -10 7 -10 15 0 8 -4 15 -10
15 -5 0 -10 5 -10 11 0 13 -25 39 -37 39 -5 0 -20 10 -33 22 -13 13 -29 23
-35 23 -13 1 -44 13 -69 27 -11 6 -33 11 -50 12 -16 1 -32 8 -34 14 -2 7 -8
10 -13 6 -5 -3 -9 0 -9 5 0 12 -23 15 -33 4z"/>
<path d="M864 1025 c-10 -8 -27 -15 -36 -15 -10 0 -18 -5 -18 -11 0 -5 -4 -8
-9 -4 -12 7 -30 -25 -24 -42 3 -7 0 -13 -6 -13 -6 0 -10 3 -10 8 4 23 -5 19
-42 -19 -26 -27 -38 -47 -34 -58 3 -8 3 -12 -1 -9 -10 11 -45 -12 -38 -24 5
-7 1 -9 -9 -5 -10 3 -17 2 -17 -4 0 -6 -4 -8 -9 -4 -5 3 -12 1 -16 -5 -3 -5
-1 -10 5 -10 6 0 8 -5 5 -10 -4 -6 -3 -9 2 -8 13 4 54 -28 45 -36 -4 -4 -2 -7
3 -6 22 5 36 -1 29 -12 -4 -6 -3 -8 4 -4 13 8 82 -24 82 -38 0 -6 5 -4 10 4 8
13 10 12 10 -3 0 -15 4 -16 20 -7 16 8 18 8 14 -4 -4 -12 1 -13 30 -6 20 4 39
4 42 -1 3 -5 12 -9 20 -9 8 0 13 4 9 9 -3 5 0 13 6 17 7 4 9 3 6 -3 -4 -6 0
-14 9 -17 8 -3 12 -2 9 4 -5 9 24 15 48 11 5 -1 6 3 2 9 -3 5 1 10 9 10 9 0
16 5 16 11 0 5 5 7 10 4 6 -3 10 1 10 9 0 9 5 16 10 16 6 0 10 7 10 16 0 9 5
12 12 8 7 -4 8 -3 4 5 -4 6 0 23 8 36 9 14 14 25 12 25 -3 0 -1 13 4 30 8 28
7 29 -12 19 -14 -8 -19 -18 -15 -35 2 -13 1 -25 -2 -26 -3 -2 -14 -21 -25 -43
-10 -22 -21 -34 -23 -27 -3 6 -9 12 -14 12 -6 0 -8 -3 -6 -7 3 -5 -1 -14 -9
-21 -18 -16 -17 -7 1 43 20 56 19 68 -4 56 -11 -7 -20 -25 -24 -51 -6 -45 -24
-73 -39 -64 -6 4 -6 9 -1 13 12 8 33 58 33 78 0 12 -3 13 -13 4 -8 -6 -17 -8
-20 -4 -6 6 -11 -21 -10 -54 1 -7 -4 -13 -9 -13 -6 0 -7 -8 -4 -17 4 -10 4
-14 0 -10 -4 4 -18 -3 -31 -15 -28 -26 -30 -16 -4 20 10 15 20 32 21 37 1 6 5
16 8 23 7 21 -5 25 -19 7 -36 -44 -69 -75 -80 -75 -7 0 2 16 21 35 25 26 30
35 17 35 -9 0 -17 -5 -17 -10 0 -6 -13 -18 -30 -29 -16 -10 -28 -21 -25 -24 3
-4 -1 -2 -7 3 -13 11 -11 14 32 40 8 4 11 12 7 16 -4 4 -16 -1 -27 -12 -36
-36 -47 -42 -60 -34 -9 6 -5 12 16 25 27 15 27 16 4 10 -66 -17 -71 -17 -68
-5 2 7 -8 17 -22 21 -20 6 -17 7 20 9 38 1 41 3 23 10 -13 5 -23 11 -23 13 0
7 60 -6 66 -14 3 -5 17 -9 32 -9 38 0 15 19 -44 35 -41 11 -44 13 -19 14 17 0
50 -8 74 -19 48 -22 65 -25 56 -10 -4 6 -10 8 -15 5 -4 -3 -10 0 -12 7 -3 7
-27 18 -54 24 l-49 12 48 -1 c32 0 59 -8 82 -24 19 -13 42 -23 51 -23 16 0 16
2 -1 20 -10 12 -25 18 -32 16 -7 -3 -16 2 -21 11 -5 9 -23 16 -40 17 -18 1
-27 5 -22 10 5 5 23 6 42 2 18 -3 36 -6 40 -6 4 0 22 -14 39 -29 28 -26 59
-32 59 -11 0 15 -39 42 -51 34 -7 -4 -10 -3 -6 3 4 6 -14 20 -41 31 -33 15
-40 21 -24 22 34 0 84 -23 112 -53 24 -25 60 -36 60 -19 0 16 -48 54 -60 47
-6 -4 -9 -1 -8 7 2 7 -1 12 -7 11 -5 0 -16 5 -23 13 -33 36 56 -3 99 -43 15
-14 29 -20 33 -15 8 14 -47 62 -90 77 -36 13 -37 14 -11 15 15 0 42 -8 60 -17
18 -9 36 -16 42 -14 5 1 7 -1 2 -5 -4 -4 0 -15 9 -25 15 -16 18 -17 40 -3 19
13 21 19 12 34 -7 10 -15 17 -19 14 -4 -2 -11 1 -16 8 -4 7 -19 18 -33 24
-114 51 -133 54 -166 29z"/>
<path d="M18236 1025 c-15 -8 -32 -13 -36 -10 -4 3 -13 -2 -20 -10 -7 -8 -16
-12 -21 -9 -5 3 -12 -2 -15 -10 -3 -9 -10 -16 -15 -16 -6 0 -19 -8 -29 -18
-19 -18 -19 -18 12 -37 31 -18 31 -18 24 1 -4 10 -4 15 0 12 3 -4 21 4 39 17
17 14 47 28 66 31 32 5 31 4 -18 -25 -57 -34 -68 -45 -57 -62 4 -7 18 0 38 20
30 29 74 51 99 51 7 -1 -4 -9 -23 -19 -19 -11 -46 -31 -60 -46 -20 -21 -22
-28 -10 -35 15 -9 43 18 33 33 -2 4 -1 7 4 6 13 -3 43 12 39 20 -3 4 3 7 12 7
9 1 31 4 47 8 28 7 29 7 11 -8 -11 -9 -26 -16 -34 -16 -7 0 -10 -4 -7 -10 3
-5 0 -7 -8 -4 -9 3 -24 -7 -37 -23 -19 -25 -20 -28 -5 -31 9 -2 24 3 34 12 23
21 86 46 113 45 22 -1 22 -1 -2 -8 -47 -15 -111 -52 -105 -61 9 -15 23 -12 53
10 17 13 49 22 82 25 l55 4 -46 -12 c-53 -14 -105 -46 -76 -46 9 -1 17 3 17 7
0 10 108 38 115 30 3 -3 -14 -11 -39 -17 -51 -13 -70 -31 -32 -31 14 0 28 5
31 10 3 6 18 10 33 9 24 0 25 -1 7 -9 -16 -7 -12 -9 20 -10 35 -1 37 -2 17
-11 -13 -5 -21 -13 -17 -18 6 -11 65 19 65 32 0 5 4 5 10 2 6 -3 7 1 4 9 -3 9
-11 16 -17 16 -5 0 -29 16 -52 35 -23 19 -46 31 -50 27 -5 -4 -5 -2 -1 5 3 6
-3 18 -15 27 -13 9 -18 19 -14 27 5 8 4 10 -3 5 -6 -4 -18 5 -28 19 -9 13 -21
22 -26 19 -6 -4 -14 -1 -18 7 -9 14 -40 22 -40 9 0 -4 -7 -11 -16 -14 -14 -5
-15 -4 -4 9 16 19 12 23 -26 30 -17 3 -41 -1 -58 -10z"/>
<path d="M18083 873 c5 -41 51 -124 84 -153 30 -25 38 -29 83 -35 14 -2 25 -4
25 -5 0 -1 23 -3 52 -3 28 -1 50 0 47 2 -4 4 52 27 81 34 11 2 35 23 35 30 0
2 -19 3 -41 1 -35 -3 -47 1 -76 26 -18 17 -36 30 -40 30 -8 0 16 -31 46 -57
18 -18 20 -23 8 -23 -18 0 -67 48 -67 66 0 10 -21 24 -36 24 -9 0 28 -76 48
-97 23 -25 9 -32 -15 -8 -8 8 -18 11 -22 7 -4 -4 -6 -2 -5 3 5 21 -1 35 -22
56 -13 12 -17 19 -10 15 18 -11 15 10 -5 30 -17 17 -18 17 -21 -3 -2 -12 4
-37 12 -57 8 -20 11 -36 7 -36 -11 0 -28 41 -36 83 -8 43 -35 59 -35 21 0 -14
3 -23 8 -21 4 3 8 -5 8 -16 1 -12 5 -33 9 -47 6 -22 5 -21 -13 6 -16 25 -34
77 -36 106 -1 3 -5 10 -10 15 -13 12 0 -57 18 -99 23 -54 11 -47 -23 13 -17
31 -27 61 -25 75 3 16 -2 27 -16 34 -18 10 -20 8 -17 -17z"/>
</g>
</svg>
